<svg width="584" height="944" viewBox="0 0 584 944" fill="none" xmlns="http://www.w3.org/2000/svg">
<g clip-path="url(#clip0_320_10907)">
<rect width="584" height="944" fill="#FBFBFB"/>
<path d="M214.358 664.437C220.876 664.437 226.158 659.154 226.158 652.635C226.158 646.116 220.876 640.828 214.358 640.828C207.835 640.828 202.553 646.116 202.553 652.635C202.553 659.154 207.835 664.437 214.358 664.437Z" fill="#FE885C"/>
<path d="M301.335 604.125V608.091V604.125Z" fill="#36357E"/>
<path d="M301.335 604.125V608.091" stroke="#FE885C" stroke-width="2.01365" stroke-linecap="round" stroke-linejoin="round"/>
<path d="M301.335 619.345V623.311V619.345Z" fill="#36357E"/>
<path d="M301.335 619.345V623.311" stroke="#FE885C" stroke-width="2.01365" stroke-linecap="round" stroke-linejoin="round"/>
<path d="M310.929 613.716H306.964H310.929Z" fill="#36357E"/>
<path d="M310.929 613.716H306.964" stroke="#FE885C" stroke-width="2.01365" stroke-linecap="round" stroke-linejoin="round"/>
<path d="M295.706 613.716H291.741H295.706Z" fill="#36357E"/>
<path d="M295.706 613.716H291.741" stroke="#FE885C" stroke-width="2.01365" stroke-linecap="round" stroke-linejoin="round"/>
<path d="M294.555 606.935L297.35 609.729L294.555 606.935Z" fill="#36357E"/>
<path d="M294.555 606.935L297.35 609.729" stroke="#FE885C" stroke-width="2.01365" stroke-linecap="round" stroke-linejoin="round"/>
<path d="M305.32 617.707L308.114 620.496L305.32 617.707Z" fill="#36357E"/>
<path d="M305.32 617.707L308.114 620.496" stroke="#FE885C" stroke-width="2.01365" stroke-linecap="round" stroke-linejoin="round"/>
<path d="M308.114 606.935L305.32 609.729L308.114 606.935Z" fill="#36357E"/>
<path d="M308.114 606.935L305.32 609.729" stroke="#FE885C" stroke-width="2.01365" stroke-linecap="round" stroke-linejoin="round"/>
<path d="M297.35 617.707L294.555 620.496L297.35 617.707Z" fill="#36357E"/>
<path d="M297.35 617.707L294.555 620.496" stroke="#FE885C" stroke-width="2.01365" stroke-linecap="round" stroke-linejoin="round"/>
<path d="M38.7922 396.748V401.643V396.748Z" fill="#FE885C"/>
<path d="M38.7922 396.748V401.643" stroke="#FE885C" stroke-width="2.01365" stroke-linecap="round" stroke-linejoin="round"/>
<path d="M38.7922 415.551V420.447V415.551Z" fill="#FE885C"/>
<path d="M38.7922 415.551V420.447" stroke="#FE885C" stroke-width="2.01365" stroke-linecap="round" stroke-linejoin="round"/>
<path d="M50.6373 408.6H45.7424H50.6373Z" fill="#FE885C"/>
<path d="M50.6373 408.6H45.7424" stroke="#FE885C" stroke-width="2.01365" stroke-linecap="round" stroke-linejoin="round"/>
<path d="M31.8418 408.6H26.9419H31.8418Z" fill="#FE885C"/>
<path d="M31.8418 408.6H26.9419" stroke="#FE885C" stroke-width="2.01365" stroke-linecap="round" stroke-linejoin="round"/>
<path d="M30.4197 400.226L33.8672 403.674L30.4197 400.226Z" fill="#FE885C"/>
<path d="M30.4197 400.226L33.8672 403.674" stroke="#FE885C" stroke-width="2.01365" stroke-linecap="round" stroke-linejoin="round"/>
<path d="M43.7119 413.521L47.1645 416.974L43.7119 413.521Z" fill="#FE885C"/>
<path d="M43.7119 413.521L47.1645 416.974" stroke="#FE885C" stroke-width="2.01365" stroke-linecap="round" stroke-linejoin="round"/>
<path d="M47.1645 400.226L43.7119 403.674L47.1645 400.226Z" fill="#FE885C"/>
<path d="M47.1645 400.226L43.7119 403.674" stroke="#FE885C" stroke-width="2.01365" stroke-linecap="round" stroke-linejoin="round"/>
<path d="M33.8672 413.521L30.4197 416.974L33.8672 413.521Z" fill="#FE885C"/>
<path d="M33.8672 413.521L30.4197 416.974" stroke="#FE885C" stroke-width="2.01365" stroke-linecap="round" stroke-linejoin="round"/>
<path d="M557.868 348.359C562.923 348.359 567.019 344.262 567.019 339.206C567.019 334.154 562.923 330.053 557.868 330.053C552.812 330.053 548.716 334.154 548.716 339.206C548.716 344.262 552.812 348.359 557.868 348.359Z" fill="#36357E"/>
<path d="M213.856 270.008V276.713V270.008Z" fill="#FE5517"/>
<path d="M213.856 270.008V276.713" stroke="#FE885C" stroke-width="2.01365" stroke-linecap="round" stroke-linejoin="round"/>
<path d="M213.856 295.738V302.443V295.738Z" fill="#FE5517"/>
<path d="M213.856 295.738V302.443" stroke="#FE885C" stroke-width="2.01365" stroke-linecap="round" stroke-linejoin="round"/>
<path d="M230.068 286.229H223.364H230.068Z" fill="#FE5517"/>
<path d="M230.068 286.229H223.364" stroke="#FE885C" stroke-width="2.01365" stroke-linecap="round" stroke-linejoin="round"/>
<path d="M204.342 286.229H197.638H204.342Z" fill="#FE5517"/>
<path d="M204.342 286.229H197.638" stroke="#FE885C" stroke-width="2.01365" stroke-linecap="round" stroke-linejoin="round"/>
<path d="M202.393 274.763L207.117 279.488L202.393 274.763Z" fill="#FE5517"/>
<path d="M202.393 274.763L207.117 279.488" stroke="#FE885C" stroke-width="2.01365" stroke-linecap="round" stroke-linejoin="round"/>
<path d="M220.59 292.963L225.314 297.688L220.59 292.963Z" fill="#FE5517"/>
<path d="M220.59 292.963L225.314 297.688" stroke="#FE885C" stroke-width="2.01365" stroke-linecap="round" stroke-linejoin="round"/>
<path d="M225.314 274.763L220.59 279.488L225.314 274.763Z" fill="#FE5517"/>
<path d="M225.314 274.763L220.59 279.488" stroke="#FE885C" stroke-width="2.01365" stroke-linecap="round" stroke-linejoin="round"/>
<path d="M207.117 292.963L202.393 297.688L207.117 292.963Z" fill="#FE5517"/>
<path d="M207.117 292.963L202.393 297.688" stroke="#FE885C" stroke-width="2.01365" stroke-linecap="round" stroke-linejoin="round"/>
<path d="M170.571 328.973L442.049 330.109C452.894 330.109 452.065 332.21 452.065 343.051L462.337 363.162V554.018C462.337 564.865 453.548 573.651 442.708 573.651H169.651C158.811 573.651 150.027 564.865 150.027 554.018V363.162L159.424 345.062C159.424 334.22 159.731 328.973 170.571 328.973Z" fill="#E1E1E1"/>
<path d="M169.651 322.936H442.708C453.548 322.936 462.337 331.727 462.337 342.569V363.162H150.027V342.569C150.027 331.727 158.811 322.936 169.651 322.936Z" fill="#CFCFCF"/>
<path d="M433.481 351.838C438.22 351.838 442.049 348.003 442.049 343.268C442.049 338.533 438.22 334.698 433.481 334.698C428.752 334.698 424.912 338.533 424.912 343.268C424.912 348.003 428.752 351.838 433.481 351.838Z" stroke="#9E9E9E" stroke-width="2.01365" stroke-linecap="round" stroke-linejoin="round"/>
<path d="M424.344 352.405L427.45 349.304" stroke="#9E9E9E" stroke-width="2.01365" stroke-linecap="round" stroke-linejoin="round"/>
<path d="M243.743 410.072H368.049C374.376 410.072 379.512 415.209 379.512 421.537V431.495L366.466 524.809C366.466 531.137 365.903 527.483 359.576 527.483L247.758 527.071C241.431 527.071 241.989 526.387 241.989 520.059L232.28 446.101V421.537C232.28 415.209 237.416 410.072 243.743 410.072Z" fill="#F7F7F7"/>
<path d="M362.254 431.495V488.946H353.977V524.246H345.459V449.755H339.132V513.047H317.226V487.001H311.627V478.722H290.45V501.366H281.203V422.487H270.981V435.878H265.87V493.329H258.809V510.127H253.698V467.77H242.501V446.101H232.28V523.467C232.28 529.82 237.416 534.957 243.768 534.957H368.049C374.401 534.957 379.537 529.82 379.537 523.467V431.495H362.254Z" fill="#36357E"/>
<path d="M187.447 585.136L160.048 603.175" stroke="#231F20" stroke-width="2.01365" stroke-linecap="round" stroke-linejoin="round"/>
<path d="M231.48 584.844L209.695 629.619" stroke="#231F20" stroke-width="2.01365" stroke-linecap="round" stroke-linejoin="round"/>
<path d="M259.482 600.114L262.216 625.965" stroke="#231F20" stroke-width="2.01365" stroke-linecap="round" stroke-linejoin="round"/>
<path d="M32.3191 438.979C50.1647 438.979 64.6332 453.45 64.6332 471.304C64.6332 489.153 50.1647 503.623 32.3191 503.623C14.4685 503.623 0 489.153 0 471.304C0 453.45 14.4685 438.979 32.3191 438.979Z" fill="#36357E"/>
<path d="M48.8831 464.8C49.275 465.981 48.8228 467.283 47.7925 467.976C47.7624 467.976 47.7624 468.006 47.7925 468.037C48.5212 468.308 49.064 468.911 49.3052 469.64C49.6972 470.816 49.2449 472.118 48.2197 472.812C48.1895 472.812 48.1895 472.842 48.2197 472.872C49.1243 473.239 49.7274 474.083 49.848 475.048C50.0339 476.32 49.1544 477.592 47.9131 478.014C43.5007 479.467 37.6058 481.975 32.9522 482.156C31.9219 482.246 30.9872 481.643 30.6555 480.673L25.7255 466.433C25.5446 465.89 25.5747 465.317 25.7858 464.8C26.9366 462.261 30.4444 454.43 31.1078 453.526C31.9219 452.435 33.5854 452.344 34.2538 454.551C34.9473 456.908 35.0679 459.391 35.2187 461.538C35.2187 461.568 35.2488 461.568 35.2488 461.568L43.5912 458.693C46.2246 457.758 48.6117 460.748 46.7673 462.985C46.7673 463.015 46.7673 463.015 46.7975 463.045C47.7925 463.226 48.5514 463.895 48.8831 464.8Z" fill="white"/>
<path d="M23.0069 466.162L28.9923 483.458C29.2636 484.303 28.8415 485.212 27.9922 485.514L21.9465 487.6C21.1022 487.871 20.1926 487.449 19.891 486.6L13.9057 469.279C13.574 468.429 14.177 467.434 14.9057 467.218C15.0565 467.158 20.9514 465.132 20.9816 465.132C21.856 464.83 22.7355 465.378 23.0069 466.162Z" fill="white"/>
<path d="M393.88 257H282.932C275.418 257 269.343 263.072 269.343 270.586V374.843C269.343 382.357 275.418 388.434 282.932 388.434H393.88C401.393 388.434 407.464 382.357 407.464 374.843V270.586C407.464 263.072 401.368 257 393.88 257Z" fill="#F7F7F7"/>
<path d="M284.203 281.127C287.289 281.127 289.786 278.629 289.786 275.542C289.786 272.456 287.289 269.953 284.203 269.953C281.117 269.953 278.615 272.456 278.615 275.542C278.615 278.629 281.117 281.127 284.203 281.127Z" fill="#A8A8D0"/>
<path d="M300.425 281.127C303.511 281.127 306.009 278.629 306.009 275.542C306.009 272.456 303.511 269.953 300.425 269.953C297.34 269.953 294.837 272.456 294.837 275.542C294.837 278.629 297.34 281.127 300.425 281.127Z" fill="#A8A8D0"/>
<path d="M316.668 281.127C319.753 281.127 322.256 278.629 322.256 275.542C322.256 272.456 319.753 269.953 316.668 269.953C313.582 269.953 311.084 272.456 311.084 275.542C311.084 278.629 313.582 281.127 316.668 281.127Z" fill="#A8A8D0"/>
<path d="M308.793 301.297L358.671 294.325C361.234 293.969 363.616 295.768 363.978 298.326L371.969 355.516C372.326 358.075 370.526 360.462 367.969 360.819L318.09 367.796C315.527 368.153 313.145 366.353 312.788 363.79L304.793 306.6C304.431 304.021 306.235 301.659 308.793 301.297Z" fill="#FE662E"/>
<path d="M316.813 315.16L319.145 316.919L322.005 313.159" fill="#FE662E"/>
<path d="M316.813 315.16L319.145 316.919L322.005 313.159" stroke="#3C2C5B" stroke-width="2.01365" stroke-linecap="round" stroke-linejoin="round"/>
<path d="M323.593 334.572C324.523 333.712 324.583 332.264 323.724 331.335C322.87 330.4 321.417 330.344 320.487 331.199C319.553 332.058 319.497 333.511 320.352 334.441C321.211 335.371 322.664 335.431 323.593 334.572Z" fill="#FE662E" stroke="#3C2C5B" stroke-width="2.01365" stroke-linecap="round" stroke-linejoin="round"/>
<path d="M326.06 352.249C326.99 351.39 327.051 349.942 326.196 349.007C325.337 348.077 323.884 348.017 322.955 348.877C322.025 349.731 321.965 351.184 322.824 352.114C323.683 353.049 325.131 353.109 326.06 352.249Z" fill="#FE662E" stroke="#3C2C5B" stroke-width="2.01365" stroke-linecap="round" stroke-linejoin="round"/>
<path d="M328.724 314.331L349.424 311.44L328.724 314.331Z" fill="#FE662E"/>
<path d="M328.724 314.331L349.424 311.44" stroke="#3C2C5B" stroke-width="2.01365" stroke-linecap="round" stroke-linejoin="round"/>
<path d="M331.142 331.631L351.842 328.736L331.142 331.631Z" fill="#FE662E"/>
<path d="M331.142 331.631L351.842 328.736" stroke="#3C2C5B" stroke-width="2.01365" stroke-linecap="round" stroke-linejoin="round"/>
<path d="M333.589 349.148L354.289 346.253L333.589 349.148Z" fill="#FE662E"/>
<path d="M333.589 349.148L354.289 346.253" stroke="#3C2C5B" stroke-width="2.01365" stroke-linecap="round" stroke-linejoin="round"/>
<path d="M412.364 454.104H532.202C546.213 454.104 557.571 465.459 557.571 479.477V598.712C557.571 612.726 546.213 624.085 532.202 624.085H412.364C398.353 624.085 386.995 612.726 386.995 598.712V479.477C386.995 465.459 398.353 454.104 412.364 454.104Z" fill="#A8A8D0"/>
<path d="M373.275 494.56C373.079 489.062 378.331 488.665 378.728 488.614C378.728 488.614 378.778 488.614 378.778 488.569C380.065 485.101 382.291 484.603 383.98 484.9C384.125 484.9 384.125 483.513 385.859 483.513C384.723 478.808 382.542 468.348 386.754 467.956C389.774 467.705 395.669 484.206 399.88 497.189C399.931 497.29 399.981 497.436 400.031 497.536C400.674 499.421 401.815 503.085 402.906 506.754C405.031 513.193 407.71 523.251 409.841 532.072C409.841 532.122 409.841 532.122 409.791 532.122L395.076 539.31L379.17 541.487C379.125 541.487 379.125 541.487 379.125 541.441C378.627 536.681 378.331 532.917 377.833 530.936C371.788 526.176 372.928 519.139 373.622 513.143C373.672 512.6 373.773 512.052 373.823 511.509C373.823 511.509 373.823 511.459 373.773 511.459C373.376 511.359 372.979 511.112 372.632 510.866C368.767 508.142 365.843 494.264 373.275 494.611C373.225 494.611 373.275 494.56 373.275 494.56Z" fill="#FAA378"/>
<path d="M385.914 505.317C381.949 501.351 380.517 495.998 378.733 488.614" stroke="#3B3B3B" stroke-width="2.01365" stroke-linecap="round" stroke-linejoin="round"/>
<path d="M378.331 507.639C376.346 505.161 374.315 498.767 373.225 494.605" stroke="#3B3B3B" stroke-width="2.01365" stroke-linecap="round" stroke-linejoin="round"/>
<path d="M373.828 511.61C376.255 512.052 378.185 511.409 378.185 507.448C378.185 507.448 380.266 509.625 382.743 509.132C384.824 508.735 385.221 506.805 385.914 504.819" stroke="#3B3B3B" stroke-width="2.01365" stroke-linecap="round" stroke-linejoin="round"/>
<path opacity="0.2" d="M373.823 511.504C376.446 512.494 377.783 512.097 378.18 507.538C378.18 507.493 378.231 507.493 378.281 507.493C379.718 508.83 381.698 509.619 383.432 509.272C383.929 509.177 384.276 509.177 384.673 508.976C384.723 508.976 384.769 508.976 384.723 509.026C384.377 510.167 383.98 511.308 383.728 512.595C383.728 512.595 383.728 512.645 383.678 512.645C382.145 512.695 380.557 512.399 379.718 511.705C379.668 511.705 379.668 511.705 379.668 511.705C378.13 516.214 373.527 513.686 373.572 513.138C373.672 512.399 373.723 512.002 373.773 511.554C373.723 511.504 373.773 511.504 373.823 511.504Z" fill="#3B3B3B"/>
<path d="M395.669 493.67C393.191 489.212 386.306 480.637 384.226 484.356C381.748 488.815 388.683 500.21 388.683 500.21C388.683 500.21 381.301 512.102 383.236 523.004" stroke="#3B3B3B" stroke-width="2.01365" stroke-linecap="round" stroke-linejoin="round"/>
<path d="M424.304 612.102C415.238 616.61 406.866 623.597 400.473 631.82C397.604 635.54 391.362 643.316 395.82 644.306C399.237 645.1 407.213 637.073 408.504 635.786C408.549 635.736 408.6 635.786 408.6 635.836C407.906 637.666 403.298 649.955 406.273 652.433C408.549 654.368 411.575 651.644 411.972 651.247C411.972 651.247 412.017 651.247 412.067 651.247C414.796 657.043 419.007 652.484 419.399 652.036H419.45C428.169 658.927 433.622 638.41 433.818 637.621C433.818 637.621 433.818 637.57 433.868 637.57C438.13 636.083 442.044 634.002 445.758 631.373C445.758 631.373 445.758 631.373 445.809 631.373C446.055 631.423 448.633 631.971 452.201 632.76C452.201 632.76 452.246 632.76 452.246 632.715L452.844 618.938L448.929 605.065C448.929 605.015 448.879 605.015 448.879 605.015C439.813 606.698 430.551 608.975 424.304 612.102Z" fill="#FAA378"/>
<path d="M409.791 532.168C412.168 541.879 413.902 549.906 414.103 550.65C414.103 550.7 414.148 550.7 414.148 550.7C415.786 550.157 417.369 549.609 418.907 549.117C450.512 538.612 467.308 538.265 468.051 538.114C468.252 538.064 479.796 534.349 480.193 534.249L502.24 538.114C502.336 538.114 512.789 538.014 514.97 538.014C515.216 538.014 515.517 538.014 515.764 538.064C538.208 540.838 538.605 562.246 531.519 583.703C532.162 594.354 534.243 597.38 534.192 606.744C534.192 613.233 528.89 616.158 528.694 616.259L514.276 617.842C514.276 617.842 510.909 622.301 509.371 624.035C507.291 626.317 505.406 628.051 503.773 628.991C491.536 639.199 464.388 635.334 452.246 632.906C452.246 632.906 452.201 632.906 452.201 632.856C452.05 631.866 448.733 606.246 448.583 605.11C448.583 605.11 448.583 605.06 448.633 605.06C450.909 604.663 453.241 604.266 455.518 603.919C455.568 603.919 455.568 603.869 455.568 603.869C454.231 593.218 452.895 582.562 452.794 581.673C452.794 581.622 452.744 581.622 452.744 581.622C451.804 581.869 438.773 585.633 425.048 587.518C415.49 588.855 405.579 589.252 399.287 586.92C386.01 582.019 380.904 560.165 379.075 541.532C379.075 541.532 379.075 541.482 379.125 541.482L409.74 532.118C409.791 532.118 409.791 532.118 409.791 532.168Z" fill="#FE5517"/>
<path d="M450.367 498.275C450.814 496.491 454.678 496.642 455.121 496.642C455.171 496.642 455.171 496.642 455.171 496.591C455.669 493.716 456.161 490.695 456.804 487.966C457.995 483.111 461.81 480.537 465.081 477.366C469.041 473.4 477.369 470.625 489.752 475.134C504.516 481.774 502.386 489.504 501.938 498.572C501.742 502.588 504.12 517.798 503.28 526.865C503.079 528.996 502.933 530.881 502.783 532.118C502.682 532.912 502.587 533.359 502.587 533.605C502.587 533.656 502.536 533.656 502.536 533.656L468.795 532.319C468.745 532.319 468.745 532.319 468.745 532.268C468.845 531.575 469.388 527.262 469.489 526.719C469.489 526.669 469.489 526.669 469.438 526.669C458.096 528.056 454.377 523.251 452.693 519.039C450.814 514.279 452 508.484 453.487 503.181V503.131C453.241 502.884 449.919 500.507 450.367 498.275Z" fill="#FAA378"/>
<path d="M505.662 498.476C506.105 489.263 504.622 478.854 489.907 472.264C480.937 468.65 468.006 470.133 462.905 475.536C459.438 479.004 457.01 487.328 456.809 487.971C456.809 488.022 456.809 488.022 456.809 488.022C457.111 488.318 458.94 489.66 462.956 489.705C463.946 489.806 465.483 489.313 466.373 489.459C466.423 489.459 466.423 489.509 466.423 489.509C466.227 491.54 466.524 493.028 467.463 494.018C468.7 495.702 472.268 495.059 473.459 494.661C473.509 494.661 473.509 494.661 473.509 494.712C472.961 500.015 474.896 503.186 475.735 504.327C475.936 504.573 476.283 504.674 476.58 504.473C479.304 502.739 489.063 498.079 493.028 504.026C497.833 511.012 487.43 519.487 486.686 520.035C486.686 520.035 486.636 520.085 486.686 520.085C491.787 526.82 503.185 526.87 503.285 526.87C503.285 526.87 505.411 503.236 505.662 498.476Z" fill="#3B3B3B"/>
<path opacity="0.2" d="M479.203 523.301C479.253 523.301 479.304 523.352 479.253 523.402L469.74 533.017H469.695L468.75 532.173V532.022L469.494 526.674C469.891 526.674 473.755 525.83 479.203 523.301Z" fill="#3B3B3B"/>
<path d="M468.056 538.069L468.75 532.173C468.75 532.123 468.75 532.123 468.8 532.123C476.082 532.123 495.209 532.072 502.737 532.072C502.788 532.072 502.788 532.072 502.788 532.123C502.737 532.67 502.29 537.325 502.245 538.018C502.245 538.018 502.245 538.069 502.195 538.069L486.44 544.91H486.389L479.947 535.294C479.947 535.244 479.896 535.244 479.851 535.294L474.449 544.859C474.449 544.91 474.399 544.91 474.348 544.859L468.056 538.069Z" fill="#FE5517"/>
<path d="M450.864 567.402L452.799 581.627" stroke="#3B3B3B" stroke-width="2.01365" stroke-linecap="round" stroke-linejoin="round"/>
<path d="M414.102 550.7L417.716 567.252" stroke="#3B3B3B" stroke-width="2.01365" stroke-linecap="round" stroke-linejoin="round"/>
<path d="M469.539 526.719C472.313 526.07 476.027 524.834 479.198 523.346" stroke="#3B3B3B" stroke-width="2.01365" stroke-linecap="round" stroke-linejoin="round"/>
<path d="M456.854 509.429C457.649 509.926 460.573 510.318 461.81 508.042" stroke="#3B3B3B" stroke-width="2.01365" stroke-linecap="round" stroke-linejoin="round"/>
<path d="M461.81 496.792C459.93 496.842 459.93 499.617 461.81 499.667C463.694 499.617 463.694 496.842 461.81 496.792Z" fill="#3B3B3B"/>
<path d="M485.791 508.931L481.279 511.509" stroke="#3B3B3B" stroke-width="2.01365" stroke-linecap="round" stroke-linejoin="round"/>
<path d="M408.549 635.836C409.891 632.368 409.59 632.368 411.72 627.955" stroke="#3B3B3B" stroke-width="2.01365" stroke-linecap="round" stroke-linejoin="round"/>
<path d="M419.399 630.584C415.932 637.968 413.454 646.141 412.017 651.197" stroke="#3B3B3B" stroke-width="2.01365" stroke-linecap="round" stroke-linejoin="round"/>
<path d="M427.234 633.062C424.656 639.008 421.289 646.291 419.605 651.644" stroke="#3B3B3B" stroke-width="2.01365" stroke-linecap="round" stroke-linejoin="round"/>
<path opacity="0.2" d="M414.148 550.655C415.439 550.207 418.359 549.217 418.857 549.071C418.907 549.071 418.907 549.071 418.907 549.122L417.766 567.206C417.766 567.257 417.666 567.257 417.666 567.206L414.148 550.655C414.102 550.655 414.102 550.705 414.148 550.655Z" fill="#3B3B3B"/>
<path opacity="0.2" d="M450.864 567.403L452.799 581.527C452.799 581.527 452.799 581.577 452.749 581.577C451.955 581.823 438.878 585.538 425.254 587.473C425.204 587.473 425.154 587.423 425.204 587.373C427.083 586.086 444.376 574.389 450.769 567.353C450.819 567.353 450.864 567.353 450.864 567.403Z" fill="#3B3B3B"/>
<path d="M492.576 579.793L483.263 600.059" stroke="#3B3B3B" stroke-width="2.01365" stroke-linecap="round" stroke-linejoin="round"/>
<path d="M514.281 617.847C517.95 613.288 526.719 596.837 527.805 593.52" stroke="#3B3B3B" stroke-width="2.01365" stroke-linecap="round" stroke-linejoin="round"/>
<path d="M455.523 603.874C469.891 601.693 477.917 600.506 483.269 600.059" stroke="#3B3B3B" stroke-width="2.01365" stroke-linecap="round" stroke-linejoin="round"/>
<path opacity="0.2" d="M527.85 593.57C528.147 605.507 526.217 612.595 524.83 616.163L524.78 616.214H515.518C515.467 616.214 515.467 616.163 515.467 616.113C519.774 609.82 524.187 601.944 527.755 593.57C527.8 593.469 527.85 593.519 527.85 593.57Z" fill="#3B3B3B"/>
<path opacity="0.2" d="M492.581 579.792C492.631 579.742 492.681 579.792 492.681 579.843L483.269 600.059C483.269 600.059 477.519 600.506 473.012 601.345C472.961 601.345 492.581 579.792 492.581 579.792Z" fill="#3B3B3B"/>
<path d="M515.417 616.163H524.83H528.694C528.745 616.163 528.745 616.163 528.745 616.213V623.944C528.745 623.994 528.745 623.994 528.694 623.994H509.472C509.421 623.994 509.421 623.944 509.421 623.894C510.959 622.16 512.593 620.129 514.226 617.847C514.623 617.304 515.02 616.756 515.417 616.163Z" fill="#3B3B3B"/>
<path d="M209.262 427.771L209.056 424.926C218.042 415.652 224.143 410.048 227.193 408.233C236.134 402.915 248.125 398.959 252.909 398.959C254.311 398.959 255.09 399.291 255.176 399.99C255.547 402.915 245.944 407.409 244.542 408.027C247.346 409.51 246.682 412.973 246.562 413.471C249.652 416.23 247.919 418.99 247.632 419.402C248.004 419.814 250.351 422.744 247.14 425.956C245.16 427.936 243.265 428.349 242.069 428.349C241.325 428.349 240.833 428.183 240.667 428.143C237.536 433.42 231.681 435.069 231.149 435.189C231.023 435.481 230.159 437.456 228.756 440.301L225.912 440.96L209.262 427.771Z" fill="#E59763"/>
<path d="M128.779 410.786V410.706C127.542 405.307 125.683 396.858 123.874 387.378C122.346 379.256 123.376 372.581 126.924 368.042C130.095 363.966 135.121 361.699 141.84 361.241C142.498 361.201 143.116 361.201 143.734 361.201C156.801 361.201 161.5 370.063 164.178 377.813C164.59 379.05 165.043 380.286 165.415 381.523C165.907 381.563 169.123 381.895 169.535 383.503C169.948 385.066 167.802 387.333 167.475 387.665C168.998 392.737 169.455 395.702 169.576 397.351C169.661 398.587 169.616 401.678 167.349 404.151C165.329 406.338 162.118 407.408 157.791 407.408C156.595 407.408 155.318 407.328 153.997 407.162L154.66 410.997L128.779 410.786Z" fill="#E59763"/>
<path opacity="0.2" d="M148.725 405.84C148.725 405.84 151.524 406.75 153.338 407.037L153.997 407.162L154.615 410.832L152.595 413.304L148.725 405.84Z" fill="#030202"/>
<path d="M112.622 492.817C103.35 491.826 96.8767 485.85 95.3539 476.737C93.9518 468.454 98.9371 445.207 108.46 431.234C117.567 417.879 128.733 415.365 129.849 415.159C129.764 414.787 129.352 413.179 128.779 410.706L128.733 410.625L154.575 410.54L155.193 413.963C160.841 414.249 166.319 415.446 171.596 417.507C179.712 420.723 193.934 438.527 195.005 439.849C195.703 439.065 202.051 432.098 209.056 424.885L209.096 424.845L228.796 440.221L228.756 440.301C223.851 450.233 211.077 473.319 198.674 473.772C198.382 473.772 198.055 473.772 197.764 473.772C189.688 473.772 182.351 469.73 177.612 466.353C172.998 463.055 169.907 459.718 169.289 459.054L161.334 492.319L112.622 492.817Z" fill="#7474B4"/>
<path opacity="0.2" d="M112.622 492.817C109.611 492.525 106.687 491.62 104.088 490.092L103.968 490.012L104.088 489.932C110.973 485.026 112.29 478.14 113.365 472.575C114.104 468.66 114.722 465.322 117.155 463.754L117.235 463.674L121.728 484.734L112.622 492.817Z" fill="#505050"/>
<path opacity="0.2" d="M164.505 453.822L169.289 459.055L161.334 492.405L148.765 492.817L164.505 453.822Z" fill="#505050"/>
<path d="M91.9316 427.192C90.7807 411.696 99.0226 406.092 106.973 400.608C113.114 396.401 118.929 392.445 120.371 384.287C123.336 367.716 128.367 362.232 141.88 360.709C142.79 360.623 143.694 360.543 144.604 360.543C154.987 360.543 159.766 367.469 161.666 371.671C161.666 371.671 160.922 376.617 153.585 376.617C153.052 376.617 152.474 376.577 152.539 376.647C153.052 380.161 152.318 383.976 150.207 387.213L150.182 387.253L150.077 387.218C150.082 387.213 145.715 385.604 141.8 385.604C138.543 385.604 136.523 386.675 135.784 388.821C133.638 395.21 143.488 401.845 143.574 401.925H143.614V401.97C143.654 402.091 146.871 415.737 141.966 427.152L141.925 427.192H91.9316Z" fill="#010005"/>
<path d="M116.125 371.219C125.618 371.219 133.312 363.524 133.312 354.029C133.312 344.539 125.618 336.844 116.125 336.844C106.631 336.844 98.9373 344.539 98.9373 354.029C98.9373 363.524 106.631 371.219 116.125 371.219Z" fill="#010005"/>
<path d="M142.704 406.253C145.252 406.253 147.323 404.192 147.323 401.639C147.323 399.085 145.252 397.024 142.704 397.024C140.157 397.024 138.091 399.085 138.091 401.639C138.091 404.192 140.157 406.253 142.704 406.253Z" fill="#FEBBA2"/>
<path d="M163.229 484.488V484.407H154.369H121.688H121.647C100.219 501.06 95.6404 516.31 90.7808 532.469C88.0167 541.657 85.1723 551.137 79.1567 561.527C76.1465 566.764 72.8095 570.634 68.9348 575.168C62.5474 582.632 54.592 591.946 43.3047 612.228C43.0132 612.76 42.7268 613.298 42.4353 613.836L42.5207 618.284L74.8298 632.755L78.413 631.021C82.6193 624.427 88.1826 617.5 93.58 610.785C96.9621 606.578 100.465 602.21 103.636 597.923L103.802 597.676C110.682 588.362 116.617 580.325 124.12 564.698C124.286 566.885 124.406 569.152 124.447 571.459C124.653 582.879 123.296 589.393 121.607 597.676C119.914 606 117.773 616.349 116.617 635.349V635.681L119.547 640.048L151.856 639.596L155.112 635.806C156.263 626.321 158.203 615.605 160.098 605.221C161.334 598.254 162.53 591.614 163.394 585.93C166.978 561.813 170.44 539.064 163.229 484.488Z" fill="#A8A8D0"/>
<path opacity="0.2" d="M112.496 585.477C112.541 585.392 114.602 577.023 115.014 561.979C115.134 557.531 115.134 553.53 115.134 550.027C115.134 538.2 114.189 532.138 118.637 528.016L124.24 564.492C118.391 576.49 115.134 581.396 115.134 581.396L112.496 585.477Z" fill="#343434"/>
<path d="M118.351 523.356C119.049 536.34 123.17 549.408 124.12 564.698" stroke="#343434" stroke-width="2.01365" stroke-linecap="round" stroke-linejoin="round"/>
<path d="M119.135 679.827L117.939 677.807C116.823 667.668 115.672 652.127 116.617 635.761V635.681H155.153L155.113 635.967C153.545 648.87 153.831 656.661 155.977 660.124C159.605 665.934 163.601 669.232 167.104 672.117C169.455 674.012 171.471 675.66 172.998 677.766L172.707 680.445L119.135 679.827Z" fill="#36357E"/>
<path d="M119.135 686.915V686.834C119.135 686.794 118.557 683.371 117.939 677.807V677.727H172.998L173.038 677.767C174.893 680.28 175.757 683.165 175.757 686.834V686.915H119.135Z" fill="#E1E1E1"/>
<path d="M28.7561 655.962L28.1379 653.117C30.4849 643.019 34.852 627.971 42.4355 613.836L42.4808 613.751L78.4986 630.941L78.4584 631.022C72.4831 640.421 70.1312 647.8 71.081 654.268C72.0258 660.823 74.1315 665.402 75.9859 669.438C77.3026 672.283 78.3328 674.836 78.8253 677.435L76.6844 679.169L28.7561 655.962Z" fill="#36357E"/>
<path d="M26.1978 662.512C26.1978 662.431 26.7757 658.802 28.0974 653.158L28.1376 653.077L78.825 677.395C79.4029 680.526 78.9104 683.577 77.262 686.915L77.2218 687L26.1978 662.512Z" fill="#E1E1E1"/>
<path d="M165.043 392.199C164.385 392.652 162.324 392.737 161.048 391.294" stroke="#030202" stroke-width="2.01365" stroke-linecap="round" stroke-linejoin="round"/>
<path d="M161.047 385.524C160.344 385.524 159.811 384.946 159.811 384.288C159.811 383.624 160.384 383.051 161.047 383.051C161.746 383.051 162.284 383.624 162.284 384.288C162.284 384.946 161.706 385.524 161.047 385.524Z" fill="#171314"/>
<path d="M154.203 407.243C151.444 406.871 149.258 406.253 149.258 406.253" stroke="#030202" stroke-width="2.01365" stroke-linecap="round" stroke-linejoin="round"/>
<path d="M147.65 395.044L143.941 393.395" stroke="#030202" stroke-width="2.01365" stroke-linecap="round" stroke-linejoin="round"/>
<path d="M116.125 459.758L121.688 484.488H163.108" stroke="#505050" stroke-width="2.01365" stroke-linecap="round" stroke-linejoin="round"/>
<path d="M112.622 474.184L118.883 472.124" stroke="#505050" stroke-width="2.01365" stroke-linecap="round" stroke-linejoin="round"/>
<path d="M169.249 458.974C166.199 456.049 163.314 452.751 163.314 452.751" stroke="#505050" stroke-width="2.01365" stroke-linecap="round" stroke-linejoin="round"/>
<path d="M195.005 440.015V447.187" stroke="#505050" stroke-width="2.01365" stroke-linecap="round" stroke-linejoin="round"/>
<path d="M209.096 424.971L228.636 440.261" stroke="#505050" stroke-width="2.01365" stroke-linecap="round" stroke-linejoin="round"/>
<path d="M154.258 654.605L146.413 655.55L154.258 654.605Z" fill="#B93200"/>
<path d="M154.258 654.605L146.413 655.55" stroke="#E1E1E1" stroke-width="2.01365" stroke-linecap="round" stroke-linejoin="round"/>
<path d="M155.932 660.385L149.876 664.698L155.932 660.385Z" fill="#B93200"/>
<path d="M155.932 660.385L149.876 664.698" stroke="#E1E1E1" stroke-width="2.01365" stroke-linecap="round" stroke-linejoin="round"/>
<path d="M72.0356 643.663L63.5776 641.532L72.0356 643.663Z" fill="#B93200"/>
<path d="M72.0356 643.663L63.5776 641.532" stroke="#E1E1E1" stroke-width="2.01365" stroke-linecap="round" stroke-linejoin="round"/>
<path d="M70.4374 651.876L61.9292 651.017L70.4374 651.876Z" fill="#B93200"/>
<path d="M70.4374 651.876L61.9292 651.017" stroke="#E1E1E1" stroke-width="2.01365" stroke-linecap="round" stroke-linejoin="round"/>
<path d="M116.702 635.761H155.027H116.702Z" fill="#B93200"/>
<path d="M116.702 635.761H155.027" stroke="#E1E1E1" stroke-width="2.01365" stroke-linecap="round" stroke-linejoin="round"/>
<path d="M78.3326 630.981L42.5208 613.876L78.3326 630.981Z" fill="#B93200"/>
<path d="M78.3326 630.981L42.5208 613.876" stroke="#E1E1E1" stroke-width="2.01365" stroke-linecap="round" stroke-linejoin="round"/>
<path d="M244.295 408.027C241.697 407.901 239.144 408.233 236.671 409.057" stroke="#030202" stroke-width="2.01365" stroke-linecap="round" stroke-linejoin="round"/>
<path d="M246.436 413.47C243.265 412.766 238.732 414.415 238.732 414.415" stroke="#030202" stroke-width="2.01365" stroke-linecap="round" stroke-linejoin="round"/>
<path d="M247.507 419.402C244.089 418.949 240.38 420.186 240.38 420.186" stroke="#030202" stroke-width="2.01365" stroke-linecap="round" stroke-linejoin="round"/>
<path d="M439.139 429.942C507.275 408.846 552.048 322.227 524.216 322.73C497.435 323.222 457.689 406.464 498.365 408.786C524.322 410.274 563.456 375.315 563.456 375.315" stroke="#231F20" stroke-width="2.01365" stroke-linecap="round" stroke-linejoin="round"/>
<path opacity="0.2" d="M584 364.228L525.347 386.122L554.043 393.139L559.963 422.041L584 364.228Z" fill="#3B3B3B"/>
<path d="M579.794 357.004L521.141 378.894L549.837 385.916L555.757 414.818L579.794 357.004Z" fill="#FE5517"/>
</g>
<defs>
<clipPath id="clip0_320_10907">
<rect width="584" height="944" fill="white"/>
</clipPath>
</defs>
</svg>
