<svg width="584" height="944" viewBox="0 0 584 944" fill="none" xmlns="http://www.w3.org/2000/svg">
<rect width="584" height="944" fill="#FBFBFB"/>
<path d="M173.428 295.151H508.612C522.038 295.151 532.923 306.057 532.923 319.514V612.044C532.923 625.496 522.038 636.401 508.612 636.401H173.428C159.996 636.401 149.112 625.496 149.112 612.044V319.514C149.112 306.057 159.996 295.151 173.428 295.151Z" fill="#E1E1E1"/>
<path d="M173.32 295.151H508.499C521.931 295.151 532.815 306.057 532.815 319.514V345.067H149.004V319.514C149.004 306.057 159.889 295.151 173.32 295.151Z" fill="#CFCFCF"/>
<path d="M179.439 329.874C184.222 329.874 188.099 325.99 188.099 321.198C188.099 316.4 184.222 312.516 179.439 312.516C174.651 312.516 170.773 316.4 170.773 321.198C170.773 325.99 174.651 329.874 179.439 329.874Z" fill="#B1B1B1"/>
<path d="M207.593 329.874C212.381 329.874 216.258 325.99 216.258 321.198C216.258 316.4 212.381 312.516 207.593 312.516C202.81 312.516 198.933 316.4 198.933 321.198C198.933 325.99 202.81 329.874 207.593 329.874Z" fill="#B1B1B1"/>
<path d="M235.752 329.874C240.541 329.874 244.418 325.99 244.418 321.198C244.418 316.4 240.541 312.516 235.752 312.516C230.964 312.516 227.086 316.4 227.086 321.198C227.086 325.99 230.964 329.874 235.752 329.874Z" fill="#B1B1B1"/>
<path d="M244.803 381.849H328.301C333.611 381.849 337.935 386.182 337.935 391.501C337.935 396.82 333.611 401.153 328.301 401.153H244.803C239.493 401.153 235.169 396.82 235.169 391.501C235.169 386.182 239.493 381.849 244.803 381.849Z" fill="#6263AB"/>
<path d="M244.803 421.745H293.616C298.925 421.745 303.25 426.077 303.25 431.397C303.25 436.716 298.925 441.049 293.616 441.049H244.803C239.493 441.049 235.169 436.716 235.169 431.397C235.169 426.077 239.493 421.745 244.803 421.745Z" fill="#A8A8D0"/>
<path d="M325.732 421.745H341.144C346.454 421.745 350.778 426.077 350.778 431.397C350.778 436.716 346.454 441.049 341.144 441.049H325.732C320.423 441.049 316.098 436.716 316.098 431.397C316.098 426.077 320.423 421.745 325.732 421.745Z" fill="#36357E"/>
<path d="M244.803 461.645H256.796C262.106 461.645 266.43 465.978 266.43 471.297C266.43 476.616 262.106 480.949 256.796 480.949H244.803C239.493 480.949 235.169 476.616 235.169 471.297C235.169 465.978 239.493 461.645 244.803 461.645Z" fill="#A8A8D0"/>
<path d="M288.907 461.645H360.842C366.151 461.645 370.475 465.978 370.475 471.297C370.475 476.616 366.151 480.949 360.842 480.949H288.907C283.597 480.949 279.273 476.616 279.273 471.297C279.273 465.978 283.597 461.645 288.907 461.645Z" fill="#2A2962"/>
<path d="M392.952 461.645H454.614C459.923 461.645 464.248 465.978 464.248 471.297C464.248 476.616 459.923 480.949 454.614 480.949H392.952C387.643 480.949 383.318 476.616 383.318 471.297C383.318 465.978 387.643 461.645 392.952 461.645Z" fill="#7474B4"/>
<path d="M244.803 501.54H283.343C288.652 501.54 292.976 505.873 292.976 511.192C292.976 516.511 288.652 520.844 283.343 520.844H244.803C239.493 520.844 235.169 516.511 235.169 511.192C235.169 505.873 239.493 501.54 244.803 501.54Z" fill="#7474B4"/>
<path d="M315.453 501.54H324.017C329.326 501.54 333.65 505.873 333.65 511.192C333.65 516.511 329.326 520.844 324.017 520.844H315.453C310.144 520.844 305.819 516.511 305.819 511.192C305.819 505.873 310.144 501.54 315.453 501.54Z" fill="#7474B4"/>
<path d="M356.133 501.54H407.086C412.395 501.54 416.719 505.873 416.719 511.192C416.719 516.511 412.395 520.844 407.086 520.844H356.133C350.823 520.844 346.499 516.511 346.499 511.192C346.499 505.873 350.823 501.54 356.133 501.54Z" fill="#36357E"/>
<path d="M284.203 566.54H397.214C408.319 566.54 417.336 575.574 417.336 586.7V599.097C417.336 610.223 408.319 619.257 397.214 619.257H284.203C273.098 619.257 264.081 610.223 264.081 599.097V586.7C264.081 575.574 273.098 566.54 284.203 566.54Z" fill="#F7F7F7"/>
<path d="M292.241 603.151C297.918 603.151 302.519 598.541 302.519 592.853C302.519 587.159 297.918 582.549 292.241 582.549C286.563 582.549 281.956 587.159 281.956 592.853C281.956 598.541 286.563 603.151 292.241 603.151Z" stroke="#9E9E9E" stroke-width="2.26792" stroke-linecap="round" stroke-linejoin="round"/>
<path d="M299.514 600.141L302.649 603.282" stroke="#9E9E9E" stroke-width="2.26792" stroke-linecap="round" stroke-linejoin="round"/>
<path d="M315.492 601.791H396.484" stroke="#9E9E9E" stroke-width="2.26792" stroke-linecap="round" stroke-linejoin="round"/>
<path d="M20.2125 685.392L48.0889 698.566C51.2982 698.838 55.4811 699.604 60.1507 700.851L67.2712 701.889C67.3278 701.889 67.3278 701.889 67.3278 701.832L66.8354 673.687L66.3996 648.86C66.3996 648.86 66.3996 648.809 66.3486 648.809L58.5772 646.467C52.7642 645.542 46.0229 644.833 39.8307 644.289C39.8307 644.289 39.8307 644.289 39.7741 644.289L37.1648 645.815L20.105 685.335C20.1616 685.392 20.1616 685.392 20.2125 685.392Z" fill="#F49E73"/>
<path d="M155.026 592.025C153.617 591.26 68.1427 544.712 74.0633 575.852C76.9952 591.26 87.7043 612.764 97.9209 630.786C107.86 648.372 117.318 662.578 118.405 664.211C118.456 664.268 118.405 664.324 118.348 664.268C99.602 655.557 83.3007 650.385 58.7412 646.517C58.6846 646.517 58.6846 646.517 58.6846 646.574L60.2072 700.851C60.2072 700.851 60.2072 700.908 60.2638 700.908C72.8124 704.282 89.7137 710.599 106.394 715.119C123.346 720.671 136.28 721.76 146.061 719.69C197.031 708.637 161.66 609.77 155.026 592.025Z" fill="#A8A8D0"/>
<path opacity="0.2" d="M160.353 607.269C160.353 607.269 160.302 607.212 160.353 607.269C158.943 606.288 68.1427 544.769 74.0633 575.852C76.9953 591.209 87.7043 612.764 97.8643 630.73C97.8643 630.73 97.9209 630.786 97.9209 630.73C99.1662 630.406 134.055 622.24 146.01 651.962C158.672 683.486 146.768 717.569 146.061 719.525C146.061 719.582 146.061 719.582 146.117 719.582C159.973 716.752 168.181 706.187 171.384 692.14C176.111 649.733 162.311 614.505 160.353 607.269Z" fill="#3B3B3B"/>
<path d="M171.6 446.986C171.6 446.934 171.656 446.934 171.656 446.934C178.177 450.689 184.154 451.777 190.131 449.055C196.108 446.333 197.195 437.572 197.738 431.09C197.738 431.09 197.738 431.039 197.795 431.039C203.823 428.152 203.551 426.519 198.717 422.164V422.107C199.476 414.378 200.183 404.578 198.338 399.406C195.621 391.784 184.697 385.144 166.709 387.866C139.705 391.183 146.174 420.91 135.193 441.541C135.193 441.598 135.193 441.598 135.25 441.598C136.773 442.086 168.883 452.106 170.354 452.543C170.405 452.543 170.405 452.543 170.405 452.486L171.6 446.986Z" fill="#F49E73"/>
<path opacity="0.2" d="M171.6 446.985L170.354 452.543C170.354 452.594 170.298 452.594 170.241 452.543C169.698 451.454 166.166 444.212 165.028 441.978C164.972 441.927 165.079 441.87 165.136 441.927C168.453 445.029 171.277 446.77 171.6 446.985C171.6 446.934 171.6 446.934 171.6 446.985Z" fill="#3B3B3B"/>
<path d="M58.6846 646.518L60.2072 700.851" stroke="#3B3B3B" stroke-width="2.26792" stroke-linecap="round" stroke-linejoin="round"/>
<path d="M13.0977 717.841C12.877 715.828 8.04317 679.074 7.98657 678.802C7.98657 678.53 10.4884 644.776 10.6525 643.415C10.6525 643.415 10.6525 643.364 10.7034 643.364C20.6484 643.143 30.0499 643.415 39.8307 644.232C39.8816 644.232 39.8816 644.289 39.8816 644.289C39.61 665.957 28.199 679.891 27.0047 681.309C26.9538 681.365 27.0047 681.416 27.0613 681.416L39.1798 679.074C43.5777 678.207 47.6531 681.473 47.8172 685.993L48.0323 698.514C48.0323 698.565 47.9813 698.565 47.9813 698.565C46.3512 698.401 44.9928 698.514 43.4136 698.514C24.3445 699.274 22.3861 711.796 13.1486 717.892C13.1486 717.892 13.0977 717.892 13.0977 717.841Z" fill="#2A2962"/>
<path d="M9.7826 719.319C7.80454 720.101 5.62134 720.579 2.82856 720.707L0.290691 644.065C3.67205 643.861 7.19268 643.705 10.4273 643.652L12.8109 717.796C11.9307 718.352 10.9075 718.86 9.7826 719.319Z" fill="#E1E1E1" stroke="#E1E1E1" stroke-width="0.566981"/>
<path d="M29.5574 692.197L33.0384 699.819" stroke="#E1E1E1" stroke-width="2.26792" stroke-linecap="round" stroke-linejoin="round"/>
<path d="M21.2991 697.698L26.4102 704.117" stroke="#E1E1E1" stroke-width="2.26792" stroke-linecap="round" stroke-linejoin="round"/>
<path d="M12.6619 684.904L26.9538 681.474" stroke="#E1E1E1" stroke-width="2.26792" stroke-linecap="round" stroke-linejoin="round"/>
<path d="M326.796 465.66C327.934 465.008 333.26 461.798 332.281 457.879C327.611 450.201 239.742 486.189 238.548 487.822H238.491C237.569 487.385 225.779 481.561 213.281 475.187C213.224 475.187 213.224 475.187 213.224 475.244L206.704 495.716L200.512 520.923C200.512 520.974 200.512 520.974 200.563 520.974C211.866 524.893 224.313 528.273 233.658 528.273C256.264 528.273 294.788 500.071 295.767 499.362C295.767 499.362 295.767 499.362 295.823 499.362C302.616 500.78 309.566 501.54 316.523 501.54C328.477 501.54 338.801 498.818 339.944 493.969C339.944 493.969 339.944 493.918 340.001 493.918C340.544 493.861 348.582 492.608 347.608 486.347C347.608 486.296 347.608 486.296 347.659 486.296C348.31 486.189 354.723 484.935 352.77 480.58C351.412 477.586 326.088 477.586 326.088 475.68C326.088 475.136 353.857 474.047 353.042 469.42C352.278 464.248 329.513 465.609 326.903 465.773C326.739 465.773 326.739 465.66 326.796 465.66Z" fill="#F49E73"/>
<path d="M195.293 466.862C179.592 459.563 170.19 457.006 169.483 456.79C169.426 456.79 169.426 456.734 169.426 456.734L170.462 451.885C170.462 451.834 170.462 451.834 170.405 451.834L135.086 441.762C135.029 441.762 135.029 441.762 135.029 441.813L133.399 449.163C133.399 449.163 133.399 449.22 133.348 449.22C132.205 449.435 99.8228 455.645 74.3916 540.63C74.3916 540.686 74.3916 540.686 74.4425 540.686L112.1 546.834L148.291 541.231H148.347L164.32 517.708L170.405 508.725C170.405 508.725 170.462 508.674 170.462 508.725C180.243 513.409 190.131 517.328 200.347 520.974C200.404 520.974 200.404 520.974 200.404 520.923L213.06 475.244C213.06 475.244 213.06 475.187 213.009 475.187C206.868 471.813 200.676 469.419 195.293 466.862Z" fill="#7474B4"/>
<path opacity="0.2" d="M159.538 503.281L164.377 517.543C164.377 517.6 164.428 517.6 164.485 517.543L170.513 508.674C170.513 508.617 170.513 508.617 170.513 508.617L159.645 503.23C159.538 503.23 159.487 503.23 159.538 503.281Z" fill="#7E7E7E"/>
<path d="M109.819 348.282C127.643 330.152 173.286 371.42 157.092 391.019C139.269 409.149 93.6249 367.938 109.819 348.282Z" fill="#FE5517"/>
<path d="M208.391 394.285C204.208 389.55 195.514 393.145 194.914 393.418H194.857C189.859 386.885 180.243 380.567 166.709 382.58C148.778 385.302 144.38 402.179 140.576 416.884C140.576 416.935 140.519 416.935 140.469 416.935C139.053 415.682 113.951 394.399 90.1496 414.542C77.9745 424.829 80.9122 447.751 85.2592 454.885V454.936C73.3049 464.191 78.2462 490.924 93.4098 492.557H93.4608C93.84 491.905 100.095 480.416 104.328 474.592H104.385C118.026 481.068 134.327 475.896 139.761 471.87C158.83 457.658 159.917 439.693 161.004 430.381V430.33C158.287 427.063 150.136 416.175 157.743 409.041C166.222 401.09 175.296 416.935 175.731 417.701C175.731 417.701 175.731 417.752 175.788 417.701C176.603 417.587 191.818 415.251 200.783 410.079C211.108 404.085 211 397.228 208.391 394.285Z" fill="#FE5517"/>
<path d="M163.126 417.751L166.981 422.65" stroke="#3B3B3B" stroke-width="2.26792" stroke-linecap="round" stroke-linejoin="round"/>
<path d="M171.599 446.985C167.688 444.428 165.079 441.87 165.079 441.87" stroke="#3B3B3B" stroke-width="2.26792" stroke-linecap="round" stroke-linejoin="round"/>
<path d="M187.686 431.418C188.229 433.051 189.86 434.14 190.946 434.14" stroke="#3B3B3B" stroke-width="2.26792" stroke-linecap="round" stroke-linejoin="round"/>
<path d="M192.033 419.384C194.155 419.441 194.155 422.599 192.033 422.65C189.916 422.599 189.916 419.441 192.033 419.384Z" fill="#3B3B3B"/>
<path d="M170.513 508.725L159.758 503.23" stroke="#3B3B3B" stroke-width="2.26792" stroke-linecap="round" stroke-linejoin="round"/>
<path d="M140.52 416.884C144.323 420.15 147.204 423.031 147.204 423.031" stroke="#B93200" stroke-width="2.26792" stroke-linecap="round" stroke-linejoin="round"/>
<path d="M104.442 474.534C102.047 473.394 99.6022 471.324 97.6494 469.583" stroke="#B93200" stroke-width="2.26792" stroke-linecap="round" stroke-linejoin="round"/>
<path d="M160.245 384.327C154.755 386.555 151.172 390.587 148.234 395.374" stroke="#B93200" stroke-width="2.26792" stroke-linecap="round" stroke-linejoin="round"/>
<path d="M326.796 465.773L315.708 466.64" stroke="#B93200" stroke-width="2.26792" stroke-linecap="round" stroke-linejoin="round"/>
<path d="M347.495 486.347C347.495 486.347 336.899 487.056 322.771 485.423" stroke="#B93200" stroke-width="2.26792" stroke-linecap="round" stroke-linejoin="round"/>
<path d="M339.888 493.969L318.968 492.88" stroke="#B93200" stroke-width="2.26792" stroke-linecap="round" stroke-linejoin="round"/>
<path d="M198.933 701.344L212.953 673.852C213.332 670.636 214.26 666.445 215.67 661.818L216.864 654.741C216.864 654.684 216.864 654.684 216.813 654.684L163.941 653.867C163.941 653.867 163.885 653.867 163.885 653.924L161.275 661.818C160.189 667.591 159.158 673.579 158.451 679.783C158.451 679.783 158.451 679.783 158.451 679.84L159.974 682.999L198.825 701.344C198.933 701.395 198.933 701.395 198.933 701.344Z" fill="#F49E73"/>
<path d="M181.114 602.312C181.165 602.312 181.165 602.369 181.165 602.369C177.305 610.042 174.045 617.34 171.22 625.013C167.202 635.85 164.106 647.447 161.332 661.761C161.332 661.818 161.332 661.818 161.389 661.818H215.67C215.67 661.818 215.726 661.818 215.726 661.761C255.557 556.582 243.546 549.992 148.399 541.231C148.234 541.231 76.3445 540.629 74.4993 540.629C74.4993 540.629 74.4427 540.629 74.4427 540.686C74.2276 541.389 71.1315 552.119 69.5013 564.64C67.2712 582.385 71.9975 610.966 103.842 612.22C142.257 613.637 178.777 602.965 181.114 602.312Z" fill="#A8A8D0"/>
<path opacity="0.2" d="M181.222 602.256C177.418 609.878 174.101 617.176 171.328 624.742C171.328 624.798 171.384 624.849 171.441 624.798C184.318 611.188 199.476 602.965 200.783 595.944C200.783 595.888 200.727 595.888 200.727 595.888C191.218 599.319 181.765 602.097 181.222 602.256Z" fill="#3B3B3B"/>
<path d="M85.5818 607.269C90.6363 610.263 95.9059 611.897 103.898 612.169C125.141 612.985 145.789 610.099 160.409 607.212" stroke="#3B3B3B" stroke-width="2.26792" stroke-linecap="round" stroke-linejoin="round"/>
<path d="M161.275 661.818H215.726" stroke="#3B3B3B" stroke-width="2.26792" stroke-linecap="round" stroke-linejoin="round"/>
<path d="M230.998 709.51C229.096 709.726 195.514 714.03 195.242 714.03C194.914 713.973 158.128 709.675 156.77 709.454L156.713 709.403C156.878 699.439 157.364 689.583 158.508 679.84C158.508 679.783 158.559 679.783 158.559 679.783C180.186 680.764 193.771 693.07 195.129 694.375C195.186 694.431 195.242 694.375 195.242 694.318L193.284 682.125C192.576 677.713 196.001 673.687 200.455 673.687L212.953 673.851C213.009 673.851 213.009 673.903 213.009 673.903C212.789 675.536 212.789 676.953 212.789 678.53C212.902 697.584 225.451 700.091 231.048 709.454C231.105 709.454 231.048 709.51 230.998 709.51Z" fill="#2A2962"/>
<path d="M232.679 712.777C233.386 714.847 233.822 717.189 233.822 720.07C233.822 720.127 233.822 720.127 233.765 720.127H156.821C156.77 720.127 156.77 720.127 156.77 720.07C156.657 716.531 156.657 712.885 156.713 709.511C156.713 709.454 156.713 709.454 156.77 709.454L231.049 709.511C231.049 709.511 231.105 709.511 231.105 709.562C231.648 710.543 232.243 711.581 232.679 712.777Z" fill="#E1E1E1"/>
<path d="M205.996 692.253L214.204 688.823" stroke="#E1E1E1" stroke-width="2.26792" stroke-linecap="round" stroke-linejoin="round"/>
<path d="M211.272 700.691L217.679 695.844" stroke="#E1E1E1" stroke-width="2.26792" stroke-linecap="round" stroke-linejoin="round"/>
<path d="M198.174 708.858L195.242 694.482" stroke="#E1E1E1" stroke-width="2.26792" stroke-linecap="round" stroke-linejoin="round"/>
<path d="M74.55 540.629L148.398 541.23" stroke="#3B3B3B" stroke-width="2.26792" stroke-linecap="round" stroke-linejoin="round"/>
<path d="M181.222 602.256L200.727 595.888" stroke="#3B3B3B" stroke-width="2.26792" stroke-linecap="round" stroke-linejoin="round"/>
<path d="M495.429 223H561.75C574.049 223 584 232.97 584 245.293V311.739C584 329.427 578.804 345.861 569.951 359.664C554.205 384.208 524.461 400.472 495.429 400.472C473.893 400.472 453.991 392.584 438.516 379.547C419.215 363.282 406.859 338.96 406.859 311.739C406.859 262.714 446.497 223 495.429 223Z" fill="#A8A8D0"/>
<path d="M525.627 271.98C535.555 271.98 543.598 263.916 543.598 253.975C543.598 244.034 535.555 235.976 525.627 235.976C515.704 235.976 507.661 244.034 507.661 253.975C507.661 263.916 515.704 271.98 525.627 271.98Z" fill="#3B3B3B"/>
<path d="M491.088 310.566C489.515 310.872 487.992 311.002 486.549 311.002C481.013 311.002 476.519 308.728 474.906 305.059C474.861 304.974 474.821 304.883 474.776 304.798C473.989 303.137 472.421 299.643 474.645 286.884C475.296 283.254 475.562 280.368 475.777 278.054C476.389 271.589 476.649 268.657 483.107 262.89C486.724 259.657 492.611 260.531 499.284 260.531C506.92 260.531 510.322 261.756 513.067 265.294C518.082 271.759 520.572 272.808 520 285.001C519.655 292.078 521.314 308.076 521.314 308.076C521.314 308.076 521.048 313.622 520.963 314.802L520 317.467L490.607 318.341L491.088 310.566Z" fill="#CF5934"/>
<path opacity="0.2" d="M491.088 310.566L491.569 310.475C494.229 310.084 496.454 309.386 499.024 308.552L499.284 308.467L492.135 317.949L490.607 318.21L491.088 310.566Z" fill="#3B3B3B"/>
<path d="M521.223 310.174C521.138 310.174 511.108 309.908 507.661 303.834L507.616 303.749L507.707 303.704C507.791 303.658 518.478 297.108 514.64 289.413C513.503 287.184 511.544 286.05 508.839 286.05C504.78 286.05 500.422 288.585 500.377 288.585L500.292 288.63L500.246 288.54C498.679 284.956 499.245 278.797 499.329 277.702C498.588 278.054 495.141 279.494 492.22 279.494C490.477 279.494 489.254 278.973 488.513 277.969C487.466 276.483 487.556 273.903 488.773 270.364C485.287 272.854 482.015 273.381 479.875 273.381C477.826 273.381 476.434 272.769 476.434 272.769C477.176 269.23 478.483 266.428 482.757 262.629C486.419 259.397 492.045 257.604 498.633 257.604C506.133 257.604 513.503 259.879 516.904 263.502C523.272 268.748 522.881 272.939 522.491 285.131C522.185 292.078 521.223 310.174 521.223 310.174Z" fill="#3B3B3B"/>
<path d="M406.344 388.303C398.493 388.303 392.431 383.846 392.041 383.494L385.628 382.229C385.673 382.054 388.984 364.139 384.756 361.995C381.875 360.555 380.743 358.196 380.919 356.619C381.049 355.485 381.836 354.697 383.013 354.391C383.449 354.306 384.015 354.26 384.802 354.26C392.952 354.26 418.123 360.028 418.383 360.073H418.468L410.572 388.173H408.308C407.652 388.258 407.001 388.303 406.344 388.303Z" fill="#CF5934"/>
<path d="M535.226 407.006C527.591 407.006 518.999 405.736 511.674 403.467H511.629L510.757 391.666H477.611L476.779 385.286C475.732 387.124 468.017 399.14 451.529 399.532C451.178 399.532 450.833 399.532 450.482 399.532C440.667 399.532 429.721 396.43 422.266 393.849C414.195 391.054 408.393 388.173 408.308 388.173L408.263 388.127L414.851 359.154L448.433 366.147C448.778 364.791 453.188 347.665 461.514 334.73C466.97 326.252 476.434 321.006 489.645 319.083C489.911 319.044 490.086 318.998 490.256 318.998L490.828 314.189L521.008 314.28C520.917 316.9 520.787 318.607 520.787 318.998C521.399 319.083 525.497 319.656 530.862 322.146C536.183 324.635 543.858 329.614 550.226 339.142C562.31 357.277 568.197 379.649 564.229 392.364C560.125 405.123 544.294 407.006 535.226 407.006Z" fill="#FE5517"/>
<path opacity="0.2" d="M523.187 377.029L523.272 376.899C524.449 375.107 524.625 372.09 524.755 369.163C524.93 365.449 525.106 361.95 527.33 360.992L527.415 360.946L527.46 361.037L532.736 376.417L523.187 377.029Z" fill="#3B3B3B"/>
<path opacity="0.2" d="M474.776 366.322L476.87 385.11V385.156C474.645 388.87 471.589 392.063 468.017 394.462L467.842 394.592L474.776 366.322Z" fill="#3B3B3B"/>
<path d="M448.433 366.277L451.399 372.923" stroke="#3B3B3B" stroke-width="2.26792" stroke-linecap="round" stroke-linejoin="round"/>
<path d="M474.6 363.221L476.779 385.071" stroke="#3B3B3B" stroke-width="2.26792" stroke-linecap="round" stroke-linejoin="round"/>
<path d="M528.683 364.967L532.521 376.286" stroke="#3B3B3B" stroke-width="2.26792" stroke-linecap="round" stroke-linejoin="round"/>
<path d="M388.594 388.655C387.722 388.655 387.111 388.519 386.675 388.258C384.666 386.948 384.801 384.589 384.841 384.107C384.45 384.021 382.747 383.624 381.875 382.184C381.264 381.18 381.224 379.825 381.745 378.294C381.309 377.948 378.258 375.543 379.871 372.351C379.475 372.044 377.296 370.213 378.564 366.89C379 365.71 380.658 364.048 383.098 362.784C385.758 361.428 388.854 360.816 391.384 360.816C391.995 360.816 392.561 360.861 393.088 360.946C394.916 361.207 395.482 362.126 395.918 363.135C396.49 364.53 396.093 365.886 395.788 366.322C396.224 366.498 397.231 367.286 397.622 368.857C398.012 370.519 396.795 371.959 396.359 372.351C396.925 372.787 398.624 373.621 398.142 375.237C398.103 377.029 395.748 379.473 392.822 380.829C393.303 380.744 393.96 380.613 394.741 380.613C397.491 380.613 398.103 381.265 398.103 382.972C398.103 384.804 396.529 386.426 395.092 387.078C393.043 387.997 390.467 388.655 388.594 388.655Z" fill="#CF5934"/>
<path d="M504.389 405.083C497.541 405.083 490.737 403.728 490.652 403.728C490.607 403.728 483.107 404.822 477.351 404.822C473.032 404.822 470.762 404.21 470.587 402.985C470.196 400.059 479.004 398.397 482.451 397.83C482.496 397.83 482.496 397.785 482.451 397.785C478.658 397.7 474.86 397.393 471.113 396.911C468.147 396.56 466.268 395.732 465.617 394.422C465.136 393.458 465.442 392.584 465.572 392.324C464.004 391.45 463.172 390.401 463.042 389.307C462.912 387.736 464.219 386.511 464.48 386.29C464.395 385.853 464.004 383.057 468.493 381.441C472.811 379.87 482.841 378.997 484.76 378.821C483.888 378.384 481.319 376.938 480.837 375.237C480.662 374.67 480.753 374.103 481.098 373.621C481.494 373.054 482.671 372.787 484.675 372.787C492.961 372.787 512.806 377.466 513.027 377.511H513.112L513.548 404.034H513.502C511.108 404.862 508.052 405.083 504.389 405.083Z" fill="#CF5934"/>
<path d="M512.982 377.641L537.841 375.895" stroke="#3B3B3B" stroke-width="2.26792" stroke-linecap="round" stroke-linejoin="round"/>
<path d="M507.746 293.74L503.954 296.32" stroke="#3B3B3B" stroke-width="2.26792" stroke-linecap="round" stroke-linejoin="round"/>
<path d="M484.194 290.943L484.064 290.813C483.583 290.421 483.413 289.718 483.673 289.151L483.934 288.103" stroke="#3B3B3B" stroke-width="2.26792" stroke-linecap="round" stroke-linejoin="round"/>
<path d="M487.03 294.613C485.768 296.189 483.583 296.144 482.932 295.623" stroke="#3B3B3B" stroke-width="2.26792" stroke-linecap="round" stroke-linejoin="round"/>
<path d="M490.256 287.36C490.913 287.36 491.433 286.833 491.433 286.181C491.433 285.529 490.913 285.001 490.256 285.001C489.611 285.001 489.079 285.529 489.079 286.181C489.079 286.833 489.611 287.36 490.256 287.36Z" fill="#3B3B3B"/>
<path d="M479.836 285.789C480.487 285.789 481.013 285.262 481.013 284.609C481.013 283.957 480.487 283.43 479.836 283.43C479.185 283.43 478.658 283.957 478.658 284.609C478.658 285.262 479.185 285.789 479.836 285.789Z" fill="#3B3B3B"/>
<path d="M490.607 310.65C494.971 309.777 497.761 308.467 497.761 308.467" stroke="#3B3B3B" stroke-width="2.26792" stroke-linecap="round" stroke-linejoin="round"/>
<path d="M464.57 386.38C470.763 385.07 484.415 383.976 488.688 383.976" stroke="#3B3B3B" stroke-width="2.26792" stroke-linecap="round" stroke-linejoin="round"/>
<path d="M465.657 392.363L488.298 390.271" stroke="#3B3B3B" stroke-width="2.26792" stroke-linecap="round" stroke-linejoin="round"/>
<path d="M484.896 378.73L492.48 378.515" stroke="#3B3B3B" stroke-width="2.26792" stroke-linecap="round" stroke-linejoin="round"/>
<path d="M379.872 372.351C384.496 369.424 390.252 367.241 395.618 366.368" stroke="#3B3B3B" stroke-width="2.26792" stroke-linecap="round" stroke-linejoin="round"/>
<path d="M382.181 378.163C386.064 375.283 390.994 373.49 396.093 372.396" stroke="#3B3B3B" stroke-width="2.26792" stroke-linecap="round" stroke-linejoin="round"/>
<path d="M385.192 383.76C389.114 381.265 394.48 380.347 394.48 380.347" stroke="#3B3B3B" stroke-width="2.26792" stroke-linecap="round" stroke-linejoin="round"/>
<path d="M522.185 271.629C521.444 268.748 519.61 266.343 516.904 263.593C514.986 261.665 512.15 260.009 508.663 259" stroke="#3B3B3B" stroke-width="2.26792" stroke-linecap="round" stroke-linejoin="round"/>
<path d="M384.756 361.996C384.756 361.996 391.95 360.555 392.477 360.64C394.305 360.907 395.443 361.604 395.879 362.608C396.445 364.009 395.482 365.886 395.177 366.323C395.618 366.498 397.096 366.85 397.492 368.421C397.882 370.082 396.224 371.914 395.788 372.311C396.269 372.617 397.973 373.53 397.928 375.237C398.279 377.336 394.35 380.262 392.782 380.744C393.218 380.699 393.694 380.307 394.175 380.307C396.926 380.307 398.363 381.181 398.363 382.882C398.363 384.719 396.224 386.511 394.786 387.169" stroke="#3B3B3B" stroke-width="2.26792" stroke-linecap="round" stroke-linejoin="round"/>
<path d="M482.451 397.83L489.124 397.784" stroke="#3B3B3B" stroke-width="2.26792" stroke-linecap="round" stroke-linejoin="round"/>
</svg>
