<svg width="584" height="944" viewBox="0 0 584 944" fill="none" xmlns="http://www.w3.org/2000/svg">
<g clip-path="url(#clip0_304_7719)">
<rect width="584" height="944" fill="#FBFBFB"/>
<path d="M548.343 552.001C563.526 557.026 577.502 567.11 582.178 580.589C586.82 594.014 582.164 610.833 573.038 624.836C563.947 638.893 550.447 650.094 536.555 650.983C522.684 651.779 508.406 642.114 496.841 630.029C485.281 617.938 476.338 603.407 477.358 589.172C478.436 574.902 489.507 560.989 503.151 553.953C516.834 546.966 533.16 546.976 548.343 552.001Z" fill="#F7F7F7"/>
<path d="M511.782 269.382C519.616 278.522 524.703 290.455 522.461 300.969C520.224 311.429 510.663 320.471 499.321 325.956C487.978 331.49 474.903 333.471 465.599 328.644C456.34 323.772 450.896 311.988 448.15 299.699C445.403 287.411 445.304 274.56 451.505 265.775C457.765 256.99 470.325 252.315 481.876 253.081C493.422 253.892 503.948 260.241 511.782 269.382Z" fill="#F7F7F7"/>
<path d="M371.527 411.943H527.831C539.891 411.943 549.66 421.697 549.66 433.738V589.74C549.66 601.781 539.891 611.534 527.831 611.534H371.527C359.467 611.534 349.698 601.781 349.698 589.74V433.684C349.698 421.697 359.467 411.943 371.527 411.943Z" stroke="#3B3B3B" stroke-width="1.98043" stroke-linecap="round" stroke-linejoin="round"/>
<path d="M382.548 436.46V587.175" stroke="#3B3B3B" stroke-width="1.98043" stroke-linecap="round" stroke-linejoin="round"/>
<path d="M525.316 578.677H373.927" stroke="#3B3B3B" stroke-width="1.98043" stroke-linecap="round" stroke-linejoin="round"/>
<path d="M374.036 456.896H392.921C396.796 456.896 399.904 459.999 399.904 463.868C399.904 467.737 403.016 470.845 406.891 470.845H408.856C411.909 470.845 414.587 472.806 415.512 475.746L440.236 555.736C442.147 561.947 447.877 566.146 454.37 566.146C461.086 566.146 466.925 561.675 468.667 555.192L483.459 500.16C485.152 493.84 490.883 489.477 497.375 489.477H525.153" stroke="#3B3B3B" stroke-width="1.98043" stroke-linecap="round" stroke-linejoin="round"/>
<path d="M516.641 480.598L525.317 489.26L516.641 497.926" stroke="#3B3B3B" stroke-width="1.98043" stroke-linecap="round" stroke-linejoin="round"/>
<path d="M493.773 441.639L504.853 436.297L510.203 447.36" stroke="#7474B4" stroke-width="1.98043" stroke-linecap="round" stroke-linejoin="round"/>
<path d="M374.036 518.249H398.211C403.506 518.249 408.529 520.699 411.746 524.894L414.092 527.948C418.57 533.724 425.499 537.103 432.868 537.103C443.676 537.103 453.113 529.801 455.845 519.341L467.143 475.529C468.232 471.388 471.943 468.503 476.199 468.503H486.295C491.427 468.503 495.901 465.178 497.43 460.271L504.744 436.406" stroke="#36357E" stroke-width="1.98043" stroke-linecap="round" stroke-linejoin="round"/>
<path d="M92.8743 270.522H258.506C271.284 270.522 281.627 281.659 281.627 295.469V503.806C281.627 517.561 271.284 528.698 258.506 528.698H92.8743C80.0965 528.698 69.7485 517.561 69.7485 503.806V295.469C69.7485 281.714 80.0965 270.522 92.8743 270.522Z" fill="#A8A8D0"/>
<path d="M215.823 414.899C212.67 413.081 211.438 409.301 213.081 406.465C214.719 403.629 218.609 402.804 221.766 404.622C224.923 406.441 226.151 410.215 224.508 413.056C222.87 415.893 218.98 416.718 215.823 414.899Z" fill="#FE5517"/>
<path d="M175.688 488.174C134.776 488.174 101.604 455.055 101.604 414.208C101.604 373.356 134.776 340.241 175.688 340.241C216.605 340.241 249.771 373.356 249.771 414.208C249.771 455.055 216.605 488.174 175.688 488.174Z" fill="#F7F7F7"/>
<path d="M213.022 406.49C209.706 404.523 205.623 401.974 205.623 401.974" stroke="#3B3B3B" stroke-width="1.98043" stroke-linecap="round" stroke-linejoin="round"/>
<path d="M206.534 430.33L206.459 430.295C199.17 427.929 191.623 427.385 190.821 427.311V420.028C191.074 420.067 191.915 420.137 193.078 420.137C195.889 420.137 201.026 419.593 204.054 415.952C207.37 411.949 206.494 406.564 205.44 400.299C205.108 398.223 204.747 396.079 204.529 393.895C204.49 393.386 204.416 392.838 204.381 392.294C203.579 383.811 202.377 372.199 190.821 368.775C187.901 367.94 184.586 367.505 181.23 367.505C175.252 367.505 170.036 369.067 166.028 371.582C161.287 374.527 159.025 378.899 159.025 384.32C159.025 396.222 159.792 425.71 159.866 427.311C154.908 427.963 150.023 429.277 145.356 431.096L145.248 431.13L182.873 468.005L206.534 430.33Z" fill="#CF5934"/>
<path opacity="0.2" d="M190.782 420.028H190.638C187.649 419.702 184.769 419.01 181.889 418.175L181.814 418.319L190.821 425.088L190.782 420.028Z" fill="#030202"/>
<path d="M195.706 401.322L195.849 401.174C196.324 400.773 196.508 400.082 196.25 399.499L195.998 398.446" stroke="#3B3B3B" stroke-width="1.98043" stroke-linecap="round" stroke-linejoin="round"/>
<path d="M192.826 404.958C194.102 406.564 196.29 406.49 196.983 405.942" stroke="#3B3B3B" stroke-width="1.98043" stroke-linecap="round" stroke-linejoin="round"/>
<path d="M200.081 396.331C199.294 396.331 198.655 395.694 198.655 394.913C198.655 394.133 199.294 393.495 200.081 393.495C200.862 393.495 201.501 394.133 201.501 394.913C201.501 395.694 200.862 396.331 200.081 396.331Z" fill="#3B3B3B"/>
<path d="M189.069 397.646C188.287 397.646 187.649 397.008 187.649 396.223C187.649 395.437 188.287 394.805 189.069 394.805C189.851 394.805 190.49 395.437 190.49 396.223C190.49 397.008 189.851 397.646 189.069 397.646Z" fill="#3B3B3B"/>
<path d="M191.4 420.102C186.773 419.628 181.814 417.735 181.814 417.735" stroke="#3B3B3B" stroke-width="1.98043" stroke-linecap="round" stroke-linejoin="round"/>
<path d="M175.762 488.174C186.882 488.174 198.076 485.59 208.063 480.748C218.089 475.906 226.987 468.736 233.876 459.996L233.91 459.926V459.887C232.015 455.667 225.017 441.324 215.065 434.372C212.185 432.371 208.281 430.696 203.47 429.421H203.436L181.923 462.945L147.653 430.221H147.618C142.258 432.114 137.918 434.515 134.711 437.43C128.001 443.508 120.855 453.844 117.207 459.487L117.173 459.561L117.207 459.595C124.101 468.445 133.034 475.723 143.095 480.639C153.156 485.55 164.424 488.174 175.613 488.174H175.762Z" fill="#FE5517"/>
<path d="M134.637 456.142C144.08 456.142 150.568 447.402 151.077 446.71C151.518 446.858 154.873 447.768 159.025 447.768C163.875 447.768 170.586 446.493 174.921 440.524C182.799 429.604 174.559 414.169 174.485 414.026C174.485 414.026 161.326 406.891 165.226 399.099C166.171 397.206 168.032 396.223 170.803 396.223C174.267 396.223 177.875 397.79 177.915 397.79L177.984 397.824L178.024 397.79C180.795 393.856 179.335 388.145 179.761 387.927C179.879 387.636 184.145 390.763 187.209 390.763C188.159 390.763 188.921 390.472 189.47 389.889C192.093 387.127 189.069 381.662 189.559 381.815C191.44 382.319 194.612 383.268 197.784 383.268C200.843 383.268 202.778 382.285 202.812 382.285L202.921 382.245C201.026 374.858 197.161 370.342 190.782 368.524C187.867 367.684 184.512 367.141 181.156 367.141C175.178 367.141 169.71 368.742 165.701 371.252C160.96 374.201 158.481 378.643 158.481 384.068C158.481 387.927 158.624 393.97 158.882 402.049C157.862 401.391 150.276 396.772 142.402 396.772C137.478 396.772 133.395 398.555 130.263 402.049C127.09 405.616 126.65 410.458 126.873 413.917C127.051 417.336 127.892 420.103 128.036 420.543C122.349 423.161 117.975 429.639 117.138 436.631C116.406 442.743 118.41 447.985 122.79 451.483C126.65 454.611 130.663 456.142 134.637 456.142Z" fill="#3B3B3B"/>
<path d="M167.374 417.701C159.342 417.701 152.829 411.199 152.829 403.174C152.829 395.155 159.342 388.653 167.374 388.653C175.411 388.653 181.923 395.155 181.923 403.174C181.923 411.199 175.411 417.701 167.374 417.701Z" fill="#FE5517"/>
<path d="M167.374 408.892C164.216 408.892 161.653 406.332 161.653 403.175C161.653 400.023 164.216 397.463 167.374 397.463C170.536 397.463 173.099 400.023 173.099 403.175C173.099 406.332 170.536 408.892 167.374 408.892Z" fill="#FEBBA2"/>
<path d="M182.324 367.175C176.89 357.421 170.002 358.256 167.814 359.57C162.38 362.807 162.999 373.217 165.152 388.416" stroke="#7E7E7E" stroke-width="1.98043" stroke-linecap="round" stroke-linejoin="round"/>
<path d="M181.923 463.054V487.734" stroke="#0B0B0B" stroke-width="1.98043" stroke-linecap="round" stroke-linejoin="round"/>
<path d="M208.137 471.721L209.999 479.765" stroke="#0B0B0B" stroke-width="1.98043" stroke-linecap="round" stroke-linejoin="round"/>
<path d="M149.291 473.687L145.426 481.548" stroke="#0B0B0B" stroke-width="1.98043" stroke-linecap="round" stroke-linejoin="round"/>
<path d="M128.11 420.794C129.387 425.128 131.208 427.672 131.208 427.672" stroke="#3B3B3B" stroke-width="1.98043" stroke-linecap="round" stroke-linejoin="round"/>
<path d="M151.369 446.349C153.779 443.617 156.001 440.415 156.001 440.415" stroke="#3B3B3B" stroke-width="1.98043" stroke-linecap="round" stroke-linejoin="round"/>
<path d="M108.072 561.492L72.708 581.453C67.972 584.141 62.2412 584.141 57.5052 581.453L22.141 561.492C19.2756 559.861 18.2809 556.24 19.8596 553.379C20.3842 552.445 21.1463 551.689 22.141 551.106L57.5052 531.144C62.2412 528.456 67.972 528.456 72.708 531.144L108.072 551.165C110.938 552.796 111.932 556.417 110.354 559.278C109.829 560.212 109.008 560.968 108.072 561.492Z" fill="#F7F7F7"/>
<path d="M108.072 542.232L72.708 562.194C67.972 564.882 62.2412 564.882 57.5052 562.194L22.141 542.232C19.2756 540.597 18.2809 536.98 19.8596 534.119C20.3842 533.185 21.1463 532.429 22.141 531.846L57.5052 511.885C62.2412 509.197 67.972 509.197 72.708 511.885L108.072 531.9C110.938 533.536 111.932 537.153 110.354 540.014C109.829 540.947 109.008 541.708 108.072 542.232Z" fill="#36357E"/>
<path d="M548.279 378.196C568.005 378.196 583.995 394.161 583.995 413.855C583.995 433.55 568.005 449.514 548.279 449.514C528.553 449.514 512.563 433.55 512.563 413.855C512.563 394.161 528.553 378.196 548.279 378.196Z" fill="#36357E"/>
<path d="M566.585 406.686C567.02 407.986 566.52 409.418 565.382 410.189C565.352 410.189 565.352 410.219 565.382 410.253C566.184 410.555 566.788 411.222 567.055 412.022C567.49 413.322 566.99 414.76 565.852 415.525C565.818 415.525 565.818 415.56 565.852 415.59C566.857 415.99 567.525 416.924 567.659 417.991C567.856 419.394 566.887 420.797 565.516 421.262C560.641 422.863 554.124 425.635 548.982 425.832C547.843 425.931 546.809 425.264 546.438 424.197L540.994 408.485C540.796 407.887 540.826 407.254 541.064 406.686C542.33 403.885 546.205 395.243 546.943 394.245C547.843 393.044 549.679 392.94 550.417 395.376C551.184 397.98 551.317 400.712 551.486 403.084C551.486 403.114 551.52 403.114 551.52 403.114L560.74 399.947C563.645 398.914 566.288 402.214 564.249 404.685C564.249 404.715 564.249 404.715 564.283 404.749C565.382 404.952 566.218 405.683 566.585 406.686Z" fill="#F7F7F7"/>
<path d="M537.986 408.188L544.602 427.265C544.904 428.198 544.434 429.202 543.499 429.533L536.818 431.835C535.882 432.136 534.883 431.667 534.546 430.733L527.93 411.622C527.563 410.688 528.231 409.586 529.033 409.354C529.201 409.284 535.714 407.051 535.749 407.051C536.719 406.72 537.689 407.318 537.986 408.188Z" fill="#F7F7F7"/>
<path d="M0 460.449C5.34967 435.181 19.8398 404.804 46.1328 410.713C79.5175 418.248 87.3317 490.979 67.5661 489.008C50.6462 487.303 54.0213 415.788 94.656 422.532" stroke="#3B3B3B" stroke-width="1.98043" stroke-linecap="round" stroke-linejoin="round"/>
<path d="M499.632 343.867L476.061 326.46L496.515 309.666C496.871 309.36 496.975 308.846 496.772 308.441C496.564 308.031 496.054 307.774 495.594 307.927L470.9 314.004L467.371 288.785C467.322 288.326 466.911 287.921 466.451 287.921C465.941 287.866 465.53 288.173 465.377 288.682L458.067 314.819L425.499 306.395C424.985 306.296 424.524 306.499 424.321 306.958C424.119 307.418 424.272 307.981 424.678 308.233L450.961 325.131L424.015 347.183C423.604 347.489 423.505 348.052 423.757 348.512C424.015 348.922 424.524 349.125 425.039 348.922L456.632 336.209L461.032 359.639C461.136 360.099 461.541 360.454 462.002 360.454C462.002 360.454 462.002 360.454 462.056 360.454C462.516 360.454 462.922 360.148 463.026 359.688L468.955 336.822L498.662 345.705C499.123 345.859 499.632 345.602 499.89 345.192C500.142 344.683 500.043 344.174 499.632 343.867Z" fill="#FE885C"/>
<path d="M443.137 286.794L437.871 277.861L443.137 286.794Z" fill="#FE885C"/>
<path d="M443.137 286.794L437.871 277.861" stroke="#3B3B3B" stroke-width="1.98043" stroke-linecap="round" stroke-linejoin="round"/>
<path d="M483.222 296.291L486.34 291.543L483.222 296.291Z" fill="#FE885C"/>
<path d="M483.222 296.291L486.34 291.543" stroke="#3B3B3B" stroke-width="1.98043" stroke-linecap="round" stroke-linejoin="round"/>
<path d="M493.189 362.04L498.459 367.297L493.189 362.04Z" fill="#FE885C"/>
<path d="M493.189 362.04L498.459 367.297" stroke="#3B3B3B" stroke-width="1.98043" stroke-linecap="round" stroke-linejoin="round"/>
<path d="M422.634 325.744H411.539H422.634Z" fill="#FE885C"/>
<path d="M422.634 325.744H411.539" stroke="#3B3B3B" stroke-width="1.98043" stroke-linecap="round" stroke-linejoin="round"/>
<path d="M91.3353 345.844L67.1405 327.977L88.1334 310.738C88.5046 310.422 88.6085 309.898 88.3957 309.478C88.1878 309.058 87.6632 308.796 87.1931 308.954L61.8403 315.19L58.2228 289.304C58.1683 288.835 57.7477 288.415 57.2775 288.415C56.753 288.36 56.3323 288.677 56.1739 289.2L48.6666 316.03L15.2374 307.383C14.7128 307.279 14.2426 307.487 14.0298 307.961C13.822 308.431 13.9804 309.009 14.3961 309.271L41.372 326.613L13.7181 349.248C13.2974 349.564 13.1885 350.142 13.4508 350.612C13.7181 351.032 14.2426 351.239 14.7672 351.032L47.2017 337.983L51.7151 362.035C51.819 362.51 52.2396 362.875 52.7098 362.875C52.7098 362.875 52.7098 362.875 52.7642 362.875C53.2344 362.875 53.655 362.559 53.7589 362.09L59.846 338.615L90.3406 347.731C90.8107 347.889 91.3353 347.627 91.5976 347.207C91.8599 346.684 91.7559 346.16 91.3353 345.844Z" fill="#FE885C"/>
<path d="M33.3451 287.264L27.936 278.093L33.3451 287.264Z" fill="#FE885C"/>
<path d="M33.3451 287.264L27.936 278.093" stroke="#3B3B3B" stroke-width="1.98043" stroke-linecap="round" stroke-linejoin="round"/>
<path d="M74.4897 297.007L77.6916 292.135L74.4897 297.007Z" fill="#FE885C"/>
<path d="M74.4897 297.007L77.6916 292.135" stroke="#3B3B3B" stroke-width="1.98043" stroke-linecap="round" stroke-linejoin="round"/>
<path d="M84.7236 364.501L90.1277 369.897L84.7236 364.501Z" fill="#FE885C"/>
<path d="M84.7236 364.501L90.1277 369.897" stroke="#3B3B3B" stroke-width="1.98043" stroke-linecap="round" stroke-linejoin="round"/>
<path d="M12.2979 327.242H0.910645H12.2979Z" fill="#FE885C"/>
<path d="M12.2979 327.242H0.910645" stroke="#3B3B3B" stroke-width="1.98043" stroke-linecap="round" stroke-linejoin="round"/>
<path d="M276.802 619.643L250.707 600.373L273.348 581.78C273.744 581.439 273.858 580.876 273.63 580.421C273.402 579.971 272.838 579.69 272.328 579.858L244.991 586.582L241.087 558.666C241.027 558.157 240.577 557.702 240.067 557.702C239.498 557.648 239.048 557.989 238.879 558.552L230.783 587.487L194.726 578.163C194.162 578.049 193.652 578.277 193.425 578.786C193.202 579.295 193.37 579.912 193.82 580.199L222.915 598.9L193.088 623.314C192.633 623.655 192.519 624.277 192.801 624.786C193.088 625.236 193.652 625.463 194.216 625.236L229.2 611.164L234.064 637.104C234.178 637.613 234.633 638.008 235.143 638.008C235.143 638.008 235.143 638.008 235.198 638.008C235.707 638.008 236.163 637.667 236.271 637.158L242.838 611.841L275.723 621.678C276.233 621.846 276.802 621.565 277.084 621.11C277.366 620.547 277.253 619.979 276.802 619.643Z" fill="#FE885C"/>
<path d="M214.254 556.462L208.424 546.57L214.254 556.462Z" fill="#FE885C"/>
<path d="M214.254 556.462L208.424 546.57" stroke="#3B3B3B" stroke-width="1.98043" stroke-linecap="round" stroke-linejoin="round"/>
<path d="M258.63 566.972L262.084 561.714L258.63 566.972Z" fill="#FE885C"/>
<path d="M258.63 566.972L262.084 561.714" stroke="#3B3B3B" stroke-width="1.98043" stroke-linecap="round" stroke-linejoin="round"/>
<path d="M269.671 639.762L275.501 645.583L269.671 639.762Z" fill="#FE885C"/>
<path d="M269.671 639.762L275.501 645.583" stroke="#3B3B3B" stroke-width="1.98043" stroke-linecap="round" stroke-linejoin="round"/>
<path d="M191.559 599.582H179.276H191.559Z" fill="#FE885C"/>
<path d="M191.559 599.582H179.276" stroke="#3B3B3B" stroke-width="1.98043" stroke-linecap="round" stroke-linejoin="round"/>
<path d="M442.459 650.889L416.106 663.592H416.062L395.232 648.127C392.421 641.896 391.278 639.608 387.562 632.044C387.562 631.999 387.562 631.999 387.562 631.999C388.131 631.762 397.519 621.579 404.957 618.392C416.962 613.204 429.166 614.059 430.116 613.678C430.166 613.678 430.166 613.678 430.166 613.678C434.075 622.29 438.079 632.997 440.509 641.659C441.509 645.226 442.078 648.082 442.508 650.889C442.508 650.889 442.508 650.889 442.459 650.889Z" fill="#D89574"/>
<path d="M296.107 638.517L321.128 634.332L343.096 638.467L343.146 638.517C342.859 649.649 341.621 659.832 339.998 668.637L312.359 670.302C312.359 670.302 312.359 670.302 312.31 670.302C311.785 669.823 296.538 655.597 296.013 655.123C296.013 655.123 296.013 655.123 296.013 655.074C296.201 647.939 296.201 644.94 296.058 638.517C296.058 638.566 296.107 638.566 296.107 638.517Z" fill="#D89574"/>
<path d="M273.328 681.815C278.237 673.726 295.919 671.631 296.013 655.168H308.499C311.31 655.168 313.453 657.693 312.978 660.45L311.929 667.016L340.048 668.682C339.573 672.965 338.761 677.249 337.712 681.815L334.807 684.621L280.336 685.575L273.328 681.815Z" fill="#36357E"/>
<path d="M337.712 681.864C336.9 685.432 335.995 688.668 335.376 690.951C335.376 690.951 335.376 691 335.327 691C333.758 691 272.853 691 270.992 691C270.943 691 270.943 691 270.943 690.951C270.943 687.047 271.848 684.147 273.328 681.864C273.328 681.864 273.328 681.864 273.377 681.864C274.758 681.864 335.52 681.864 337.663 681.864C337.663 681.815 337.712 681.864 337.712 681.864Z" fill="#F7F7F7"/>
<path d="M298.824 670.253L292.866 665.969L298.824 670.253Z" fill="#F7F7F7"/>
<path d="M298.824 670.253L292.866 665.969" stroke="#F7F7F7" stroke-width="1.98043" stroke-linecap="round" stroke-linejoin="round"/>
<path d="M292.965 675.866L288.006 670.969L292.965 675.866Z" fill="#F7F7F7"/>
<path d="M292.965 675.866L288.006 670.969" stroke="#F7F7F7" stroke-width="1.98043" stroke-linecap="round" stroke-linejoin="round"/>
<path d="M315.601 455.518C315.601 455.518 343.67 444.767 343.715 444.767C351.009 443.195 371.834 452.524 373.17 453.952C376.125 458.043 376.456 466.462 376.456 466.561C391.085 494.68 388.229 541.595 402.858 566.433C409.485 577.471 420.585 594.029 430.166 613.634V613.679C428.686 614.296 388.992 631.427 387.606 632H387.561C385.275 627.573 382.984 623.289 380.653 619.01C371.309 601.83 367.781 596.124 361.11 583.134C359.398 579.754 357.774 576.33 356.3 572.95C351.484 562.243 347.718 551.586 344.764 541.259C344.764 541.214 344.67 541.214 344.67 541.259C338.855 555.533 333.901 569.714 335.188 581.37C337.568 603.021 344.051 615.917 343.24 638.517C343.24 638.566 343.24 638.567 343.19 638.567H296.201C296.157 638.567 296.157 638.566 296.157 638.517C296.058 634.189 295.919 629.618 295.677 624.149C295.014 613.491 293.964 596.692 293.964 580.708C293.865 517.33 315.601 455.518 315.601 455.518Z" fill="#A8A8D0"/>
<path d="M312.79 338.802C312.928 338.234 314.121 329.048 314.121 329.004C313.171 316.152 322.321 313.919 322.366 313.87C344.858 305.401 361.684 315.347 358.631 338.52C358.299 344.988 359.823 354.317 359.299 362.548C359.205 364.115 359.111 365.829 359.017 367.257C359.017 367.306 353.677 371.585 353.677 371.585L332.234 371.062C332.184 371.062 329.18 368.211 329.18 368.161L329.373 364.307C329.373 364.258 329.324 364.258 329.324 364.258C322.702 365.878 316.694 365.162 313.359 360.928C310.642 357.454 310.835 350.937 311.929 345.512V345.462C311.642 345.275 308.405 343.135 309.024 341.183C309.449 339.612 312.453 338.901 312.79 338.802Z" fill="#D89574"/>
<path opacity="0.15" d="M329.373 364.258C329.705 364.165 332.946 363.26 338.093 360.167C338.143 360.118 338.187 360.217 338.143 360.261L329.23 368.211C329.18 368.256 329.136 368.211 329.136 368.162L329.23 366.684L329.373 364.258C329.324 364.258 329.324 364.258 329.373 364.258Z" fill="#3B3B3B"/>
<path d="M226.482 496.913C220.905 499.675 217.332 495.391 219.524 492.728C226.958 483.923 234.871 477.643 243.209 470.652L256.695 477.218L262.985 492.061C262.985 492.061 262.985 492.061 262.985 492.111C262.46 495.011 257.937 502.531 250.979 506.429C247.02 518.658 244.783 524.034 241.923 523.135C239.537 522.369 242.779 512.047 243.303 508.954C243.303 508.905 243.259 508.86 243.209 508.905C240.824 511.524 232.579 530.413 227.72 521.801C223.003 522.611 222.667 518.327 223.098 517.374C212.66 520.136 225.864 497.961 226.482 496.913Z" fill="#D89574"/>
<path d="M223.147 517.33C223.147 517.33 228.581 505.482 232.916 498.297" stroke="#3B3B3B" stroke-width="1.98043" stroke-linecap="round" stroke-linejoin="round"/>
<path d="M226.339 496.963C226.339 496.963 228.531 493.87 230.006 491.918" stroke="#3B3B3B" stroke-width="1.98043" stroke-linecap="round" stroke-linejoin="round"/>
<path d="M227.814 521.751C227.814 521.751 233.866 510.239 238.632 503.055" stroke="#3B3B3B" stroke-width="1.98043" stroke-linecap="round" stroke-linejoin="round"/>
<path d="M309.831 308.969C316.601 304.309 322.321 310.016 322.702 310.397H322.747C330.423 307.496 340.429 306.592 348.006 310.397C360.823 316.82 361.491 328.001 360.873 338.565C360.586 344.084 359.824 355.315 359.254 362.549C359.254 362.593 359.254 362.593 359.205 362.593C358.492 362.549 348.624 361.644 343.29 354.317V354.267C346.244 352.316 355.295 341.609 347.387 335.951C341.379 331.475 331.991 340.897 331.467 341.421H331.422C330.848 341.09 320.555 335.329 314.077 329.049C307.401 322.482 304.065 313.727 309.831 308.969Z" fill="#3B3B3B"/>
<path d="M315.551 350.507C316.932 350.843 318.981 349.559 319.268 348.225" stroke="#3B3B3B" stroke-width="1.98043" stroke-linecap="round" stroke-linejoin="round"/>
<path d="M329.274 364.258C330.705 363.784 335.426 361.926 338.093 360.167" stroke="#3B3B3B" stroke-width="1.98043" stroke-linecap="round" stroke-linejoin="round"/>
<path d="M338.286 347.37L341.765 344.563" stroke="#3B3B3B" stroke-width="1.98043" stroke-linecap="round" stroke-linejoin="round"/>
<path d="M318.219 338.521C316.363 338.565 316.363 341.327 318.219 341.371C320.079 341.327 320.079 338.565 318.219 338.521Z" fill="#3B3B3B"/>
<path d="M385.226 681.627C386.463 672.254 401.765 663.261 395.232 648.176C395.232 648.176 395.232 648.127 395.282 648.127L406.669 643.132C409.242 641.99 412.246 643.468 412.914 646.175L414.582 652.554C414.582 652.598 414.631 652.598 414.631 652.598L440.459 641.704C440.509 641.704 440.509 641.704 440.509 641.753C441.746 645.75 443.082 651.269 444.032 655.79C444.082 655.884 444.032 655.692 444.032 655.79L441.271 660.405C441.271 660.405 391.659 683.717 391.659 683.672L385.226 681.627Z" fill="#36357E"/>
<path opacity="0.15" d="M357.586 544.875C356.582 556.961 356.25 570.811 356.25 572.713C356.25 572.757 356.201 572.757 356.156 572.713C351.39 562.006 347.624 551.398 344.67 541.12C344.67 541.12 344.67 541.12 344.67 541.071C349.243 529.796 354.389 518.377 357.393 508.095C357.393 508.05 357.443 508.05 357.487 508.095C361.728 513.856 359.254 525.512 357.586 544.875Z" fill="#3B3B3B"/>
<path d="M344.67 541.215C344.67 541.215 354.914 520.042 357.393 508.095" stroke="#3B3B3B" stroke-width="1.98043" stroke-linecap="round" stroke-linejoin="round"/>
<path d="M444.082 655.741C444.844 659.309 445.418 662.688 445.75 665.065C445.75 665.065 445.75 665.114 445.7 665.114C444.225 665.781 388.512 690.19 386.75 690.951C386.705 690.951 386.705 690.951 386.705 690.906C385.132 687.334 384.795 684.34 385.176 681.627C385.176 681.627 385.176 681.578 385.226 681.578L443.988 655.692C444.032 655.741 444.082 655.741 444.082 655.741Z" fill="#F7F7F7"/>
<path d="M404.719 659.264L396.281 657.693" stroke="#F7F7F7" stroke-width="1.98043" stroke-linecap="round" stroke-linejoin="round"/>
<path d="M401.764 666.591L394.183 663.399" stroke="#F7F7F7" stroke-width="1.98043" stroke-linecap="round" stroke-linejoin="round"/>
<path d="M280.192 439.678C280.192 439.678 295.439 392.047 306.975 378.153C313.502 370.207 328.373 370.494 328.943 370.494L329.136 368.256L329.23 366.685L358.967 367.352C358.873 368.873 358.873 370.114 358.774 371.443C368.83 374.348 376.694 380.485 384.795 396.237C391.228 408.747 400.047 432.968 401.047 444.91C402.19 459.185 391.327 466.132 381.84 466.843C379.792 466.986 378.267 466.942 376.456 466.512L368.785 455.761C353.914 455.761 330.61 455.474 315.645 455.518C315.601 455.518 315.601 455.518 315.601 455.474C315.551 454.713 315.121 444.337 315.076 443.532C306.02 463.132 287.194 481.167 263.084 492.062H263.034C262.703 491.681 257.744 486.4 252.835 481.167C247.975 475.979 243.353 470.796 243.259 470.697C262.797 453.522 280.142 439.722 280.192 439.678Z" fill="#7474B4"/>
<path d="M330.229 455.854C330.229 455.854 315.789 537.074 315.883 570.189C315.982 594.36 320.129 611.397 321.129 638.468" stroke="#3B3B3B" stroke-width="1.98043" stroke-linecap="round" stroke-linejoin="round"/>
<path d="M371.453 441.53L377.174 443.433" stroke="#3B3B3B" stroke-width="1.98043" stroke-linecap="round" stroke-linejoin="round"/>
<path d="M369.068 455.854L372.928 429.875" stroke="#3B3B3B" stroke-width="1.98043" stroke-linecap="round" stroke-linejoin="round"/>
<path d="M315.076 443.433L321.079 429.114" stroke="#3B3B3B" stroke-width="1.98043" stroke-linecap="round" stroke-linejoin="round"/>
<path opacity="0.15" d="M381.796 466.843C379.698 466.986 378.173 466.942 376.506 466.512L368.83 455.76L372.977 429.924C373.027 429.924 373.027 429.924 373.027 429.875C379.411 432.394 376.981 449.288 377.98 456.521C378.743 461.991 381.509 466.275 381.89 466.843C381.841 466.798 381.841 466.843 381.796 466.843Z" fill="#3B3B3B"/>
<path opacity="0.15" d="M315.076 443.432L321.035 429.113C321.035 429.064 321.079 429.064 321.129 429.113L335.376 455.137C335.47 455.33 335.327 455.617 335.089 455.617L315.645 455.518L315.601 455.473L315.076 443.432C315.076 443.482 315.076 443.432 315.076 443.432Z" fill="#3B3B3B"/>
<path d="M381.034 478.266L374.076 478.311" stroke="#3B3B3B" stroke-width="1.98043" stroke-linecap="round" stroke-linejoin="round"/>
<path d="M357.344 478.311H339.192" stroke="#3B3B3B" stroke-width="1.98043" stroke-linecap="round" stroke-linejoin="round"/>
</g>
<defs>
<clipPath id="clip0_304_7719">
<rect width="584" height="944" fill="white"/>
</clipPath>
</defs>
</svg>
